M48
; DRILL file {KiCad 7.0.7} date Sat Nov 25 21:21:36 2023
; FORMAT={-:-/ absolute / metric / decimal}
; #@! TF.CreationDate,2023-11-25T21:21:36+09:00
; #@! TF.GenerationSoftware,Kicad,Pcbnew,7.0.7
; #@! TF.FileFunction,Plated,1,2,PTH
FMAT,2
METRIC
; #@! TA.AperFunction,Plated,PTH,ComponentDrill
T1C0.740
; #@! TA.AperFunction,Plated,PTH,ComponentDrill
T2C0.750
; #@! TA.AperFunction,Plated,PTH,ComponentDrill
T3C0.800
; #@! TA.AperFunction,Plated,PTH,ComponentDrill
T4C0.900
; #@! TA.AperFunction,Plated,PTH,ComponentDrill
T5C1.000
; #@! TA.AperFunction,Plated,PTH,ComponentDrill
T6C1.100
%
G90
G05
T1
X69.84Y-69.84
X69.84Y-72.38
X69.84Y-74.92
X69.84Y-81.27
X69.84Y-83.81
X69.84Y-86.35
T2
X138.43Y-71.12
X138.43Y-72.39
X138.43Y-73.66
T3
X68.58Y-93.98
X68.58Y-101.6
X68.58Y-111.76
X74.92Y-69.84
X74.92Y-74.92
X74.96Y-81.27
X75.0Y-86.35
X76.2Y-101.6
X76.2Y-111.76
X78.74Y-93.98
X79.96Y-81.27
X80.0Y-86.35
X81.28Y-93.98
X83.82Y-101.6
X83.82Y-111.76
X85.08Y-69.84
X85.08Y-74.92
X88.9Y-80.01
X88.9Y-82.55
X88.9Y-85.09
X88.9Y-87.63
X91.44Y-93.98
X91.44Y-101.6
X91.44Y-111.76
X93.97Y-72.38
X93.98Y-93.98
X96.52Y-80.01
X96.52Y-82.55
X96.52Y-85.09
X96.52Y-87.63
X99.06Y-101.6
X99.06Y-111.76
X104.13Y-72.38
X104.14Y-93.98
X106.68Y-101.6
X106.68Y-111.76
X114.3Y-101.6
X114.3Y-111.76
X120.65Y-78.74
X120.65Y-83.74
X121.92Y-101.6
X121.92Y-111.76
X127.0Y-78.74
X127.0Y-82.55
X127.04Y-68.58
X127.04Y-72.39
X129.54Y-101.6
X129.54Y-111.76
X132.04Y-68.58
X132.04Y-72.39
X137.16Y-78.74
X137.16Y-82.55
X137.16Y-101.6
X137.16Y-111.76
X138.51Y-87.63
X143.51Y-72.39
X143.51Y-82.55
X143.51Y-87.63
X144.78Y-101.6
X144.78Y-111.76
X149.86Y-82.55
X152.4Y-101.6
X152.4Y-111.76
X157.48Y-69.93
X157.48Y-74.93
X160.02Y-82.55
X160.02Y-101.6
X160.02Y-111.76
X166.37Y-72.35
X166.37Y-74.85
X167.64Y-101.6
X167.64Y-111.76
X168.91Y-81.28
X175.26Y-101.6
X175.26Y-111.76
X179.07Y-81.28
X182.88Y-101.6
X182.88Y-111.76
X186.7Y-86.37
X186.7Y-88.91
X186.7Y-91.45
X186.7Y-93.99
X190.5Y-101.6
X190.5Y-111.76
X194.32Y-86.37
X194.32Y-88.91
X194.32Y-91.45
X194.32Y-93.99
X198.12Y-101.6
X198.12Y-111.76
X200.66Y-72.39
X200.66Y-77.39
X201.93Y-88.94
X201.93Y-93.94
X205.66Y-83.86
X205.66Y-94.02
X205.74Y-101.6
X205.74Y-111.76
X213.36Y-101.6
X213.36Y-111.76
X220.98Y-101.6
X220.98Y-111.76
X223.52Y-72.47
X223.52Y-77.47
X228.6Y-101.6
X228.6Y-111.76
T4
X179.07Y-77.47
X181.61Y-77.47
T5
X90.17Y-66.675
X147.32Y-69.85
X149.86Y-69.85
X193.04Y-72.39
X193.04Y-75.89
X215.9Y-72.39
X215.9Y-75.89
X217.48Y-90.17
X220.98Y-90.17
X228.6Y-77.465
X228.6Y-80.005
X228.6Y-90.17
X228.6Y-92.71
T6
X176.53Y-72.39
X181.61Y-72.39
X208.28Y-70.81
X208.28Y-73.35
X208.28Y-75.89
T0
M30
