%TF.GenerationSoftware,KiCad,Pcbnew,7.0.7*%
%TF.CreationDate,2023-11-25T21:21:33+09:00*%
%TF.ProjectId,StylophoneV1,5374796c-6f70-4686-9f6e-6556312e6b69,rev?*%
%TF.SameCoordinates,Original*%
%TF.FileFunction,Soldermask,Top*%
%TF.FilePolarity,Negative*%
%FSLAX46Y46*%
G04 Gerber Fmt 4.6, Leading zero omitted, Abs format (unit mm)*
G04 Created by KiCad (PCBNEW 7.0.7) date 2023-11-25 21:21:33*
%MOMM*%
%LPD*%
G01*
G04 APERTURE LIST*
%ADD10C,3.200000*%
%ADD11R,1.700000X1.700000*%
%ADD12O,1.700000X1.700000*%
%ADD13O,2.000000X1.905000*%
%ADD14R,2.000000X1.905000*%
%ADD15O,1.600000X1.600000*%
%ADD16R,1.600000X1.600000*%
%ADD17C,1.600000*%
%ADD18C,1.240000*%
%ADD19O,1.500000X1.050000*%
%ADD20R,1.500000X1.050000*%
%ADD21C,1.800000*%
%ADD22R,1.800000X1.800000*%
%ADD23O,2.000000X2.000000*%
%ADD24R,2.000000X2.000000*%
%ADD25C,2.000000*%
G04 APERTURE END LIST*
D10*
%TO.C,H4*%
X236220000Y-128270000D03*
%TD*%
%TO.C,H3*%
X236220000Y-68580000D03*
%TD*%
%TO.C,H2*%
X60960000Y-128270000D03*
%TD*%
%TO.C,H1*%
X60960000Y-68580000D03*
%TD*%
D11*
%TO.C,J2*%
X90170000Y-66675000D03*
%TD*%
%TO.C,LS1*%
X228600000Y-90170000D03*
D12*
X228600000Y-92710000D03*
%TD*%
D11*
%TO.C,J1*%
X228600000Y-77465000D03*
D12*
X228600000Y-80005000D03*
%TD*%
D13*
%TO.C,U3*%
X208280000Y-70810000D03*
X208280000Y-73350000D03*
D14*
X208280000Y-75890000D03*
%TD*%
D15*
%TO.C,U2*%
X194320000Y-86370000D03*
X194320000Y-88910000D03*
X194320000Y-91450000D03*
X194320000Y-93990000D03*
X186700000Y-93990000D03*
X186700000Y-91450000D03*
X186700000Y-88910000D03*
D16*
X186700000Y-86370000D03*
%TD*%
D15*
%TO.C,U1*%
X96520000Y-80010000D03*
X96520000Y-82550000D03*
X96520000Y-85090000D03*
X96520000Y-87630000D03*
X88900000Y-87630000D03*
X88900000Y-85090000D03*
X88900000Y-82550000D03*
D16*
X88900000Y-80010000D03*
%TD*%
D12*
%TO.C,SW1*%
X149860000Y-69850000D03*
D11*
X147320000Y-69850000D03*
%TD*%
D15*
%TO.C,R36*%
X168910000Y-81280000D03*
D17*
X179070000Y-81280000D03*
%TD*%
D15*
%TO.C,R35*%
X205660000Y-94020000D03*
D17*
X205660000Y-83860000D03*
%TD*%
D15*
%TO.C,R34*%
X228600000Y-101600000D03*
D17*
X228600000Y-111760000D03*
%TD*%
D18*
%TO.C,R33*%
X69840000Y-81270000D03*
X69840000Y-83810000D03*
X69840000Y-86350000D03*
%TD*%
D15*
%TO.C,R32*%
X220980000Y-101600000D03*
D17*
X220980000Y-111760000D03*
%TD*%
D15*
%TO.C,R31*%
X213360000Y-101600000D03*
D17*
X213360000Y-111760000D03*
%TD*%
D15*
%TO.C,R30*%
X205740000Y-101600000D03*
D17*
X205740000Y-111760000D03*
%TD*%
D15*
%TO.C,R29*%
X198120000Y-101600000D03*
D17*
X198120000Y-111760000D03*
%TD*%
D15*
%TO.C,R28*%
X190500000Y-101600000D03*
D17*
X190500000Y-111760000D03*
%TD*%
D15*
%TO.C,R27*%
X182880000Y-101600000D03*
D17*
X182880000Y-111760000D03*
%TD*%
D15*
%TO.C,R26*%
X175260000Y-101600000D03*
D17*
X175260000Y-111760000D03*
%TD*%
D15*
%TO.C,R25*%
X167640000Y-101600000D03*
D17*
X167640000Y-111760000D03*
%TD*%
D15*
%TO.C,R24*%
X160020000Y-101600000D03*
D17*
X160020000Y-111760000D03*
%TD*%
D15*
%TO.C,R23*%
X152400000Y-101600000D03*
D17*
X152400000Y-111760000D03*
%TD*%
D15*
%TO.C,R22*%
X144780000Y-101600000D03*
D17*
X144780000Y-111760000D03*
%TD*%
D15*
%TO.C,R21*%
X137160000Y-101600000D03*
D17*
X137160000Y-111760000D03*
%TD*%
D15*
%TO.C,R20*%
X129540000Y-101600000D03*
D17*
X129540000Y-111760000D03*
%TD*%
D15*
%TO.C,R19*%
X121920000Y-101600000D03*
D17*
X121920000Y-111760000D03*
%TD*%
D15*
%TO.C,R18*%
X114300000Y-101600000D03*
D17*
X114300000Y-111760000D03*
%TD*%
D15*
%TO.C,R17*%
X106680000Y-101600000D03*
D17*
X106680000Y-111760000D03*
%TD*%
D15*
%TO.C,R16*%
X99060000Y-101600000D03*
D17*
X99060000Y-111760000D03*
%TD*%
D15*
%TO.C,R15*%
X91440000Y-101600000D03*
D17*
X91440000Y-111760000D03*
%TD*%
D15*
%TO.C,R14*%
X83820000Y-101600000D03*
D17*
X83820000Y-111760000D03*
%TD*%
D15*
%TO.C,R13*%
X76200000Y-101600000D03*
D17*
X76200000Y-111760000D03*
%TD*%
D15*
%TO.C,R12*%
X68580000Y-101600000D03*
D17*
X68580000Y-111760000D03*
%TD*%
D15*
%TO.C,R11*%
X68580000Y-93980000D03*
D17*
X78740000Y-93980000D03*
%TD*%
D15*
%TO.C,R10*%
X81280000Y-93980000D03*
D17*
X91440000Y-93980000D03*
%TD*%
D15*
%TO.C,R9*%
X93980000Y-93980000D03*
D17*
X104140000Y-93980000D03*
%TD*%
D15*
%TO.C,R8*%
X127000000Y-78740000D03*
D17*
X137160000Y-78740000D03*
%TD*%
D15*
%TO.C,R7*%
X127000000Y-82550000D03*
D17*
X137160000Y-82550000D03*
%TD*%
D15*
%TO.C,R6*%
X143510000Y-82550000D03*
D17*
X143510000Y-72390000D03*
%TD*%
D15*
%TO.C,R5*%
X149860000Y-82550000D03*
D17*
X160020000Y-82550000D03*
%TD*%
D15*
%TO.C,R4*%
X104130000Y-72380000D03*
D17*
X93970000Y-72380000D03*
%TD*%
D15*
%TO.C,R3*%
X85080000Y-74920000D03*
D17*
X74920000Y-74920000D03*
%TD*%
D18*
%TO.C,R2*%
X69840000Y-69840000D03*
X69840000Y-72380000D03*
X69840000Y-74920000D03*
%TD*%
D15*
%TO.C,R1*%
X74920000Y-69840000D03*
D17*
X85080000Y-69840000D03*
%TD*%
D19*
%TO.C,Q1*%
X138430000Y-71120000D03*
X138430000Y-72390000D03*
D20*
X138430000Y-73660000D03*
%TD*%
D21*
%TO.C,D2*%
X181610000Y-77470000D03*
D22*
X179070000Y-77470000D03*
%TD*%
D23*
%TO.C,D1*%
X181610000Y-72390000D03*
D24*
X176530000Y-72390000D03*
%TD*%
D17*
%TO.C,C14*%
X223520000Y-72470000D03*
X223520000Y-77470000D03*
%TD*%
%TO.C,C13*%
X200660000Y-77390000D03*
X200660000Y-72390000D03*
%TD*%
D25*
%TO.C,C12*%
X215900000Y-72390000D03*
D24*
X215900000Y-75890000D03*
%TD*%
D25*
%TO.C,C11*%
X193040000Y-75890000D03*
D24*
X193040000Y-72390000D03*
%TD*%
D17*
%TO.C,C10*%
X201930000Y-93940000D03*
X201930000Y-88940000D03*
%TD*%
D24*
%TO.C,C9*%
X217480000Y-90170000D03*
D25*
X220980000Y-90170000D03*
%TD*%
D17*
%TO.C,C8*%
X75000000Y-86350000D03*
X80000000Y-86350000D03*
%TD*%
%TO.C,C7*%
X79960000Y-81270000D03*
X74960000Y-81270000D03*
%TD*%
%TO.C,C6*%
X132040000Y-72390000D03*
X127040000Y-72390000D03*
%TD*%
%TO.C,C5*%
X120650000Y-78740000D03*
X120650000Y-83740000D03*
%TD*%
%TO.C,C4*%
X138510000Y-87630000D03*
X143510000Y-87630000D03*
%TD*%
%TO.C,C3*%
X132040000Y-68580000D03*
X127040000Y-68580000D03*
%TD*%
%TO.C,C2*%
X166370000Y-74850000D03*
D16*
X166370000Y-72350000D03*
%TD*%
D17*
%TO.C,C1*%
X157480000Y-74930000D03*
X157480000Y-69930000D03*
%TD*%
G36*
X232353039Y-113049685D02*
G01*
X232398794Y-113102489D01*
X232410000Y-113154000D01*
X232410000Y-130051000D01*
X232390315Y-130118039D01*
X232337511Y-130163794D01*
X232286000Y-130175000D01*
X64894000Y-130175000D01*
X64826961Y-130155315D01*
X64781206Y-130102511D01*
X64770000Y-130051000D01*
X64770000Y-113154000D01*
X64789685Y-113086961D01*
X64842489Y-113041206D01*
X64894000Y-113030000D01*
X232286000Y-113030000D01*
X232353039Y-113049685D01*
G37*
M02*
