%TF.GenerationSoftware,KiCad,Pcbnew,7.0.7*%
%TF.CreationDate,2023-11-25T21:21:33+09:00*%
%TF.ProjectId,StylophoneV1,5374796c-6f70-4686-9f6e-6556312e6b69,rev?*%
%TF.SameCoordinates,Original*%
%TF.FileFunction,Copper,L1,Top*%
%TF.FilePolarity,Positive*%
%FSLAX46Y46*%
G04 Gerber Fmt 4.6, Leading zero omitted, Abs format (unit mm)*
G04 Created by KiCad (PCBNEW 7.0.7) date 2023-11-25 21:21:33*
%MOMM*%
%LPD*%
G01*
G04 APERTURE LIST*
%TA.AperFunction,ComponentPad*%
%ADD10R,1.700000X1.700000*%
%TD*%
%TA.AperFunction,ComponentPad*%
%ADD11O,1.700000X1.700000*%
%TD*%
%TA.AperFunction,ComponentPad*%
%ADD12O,2.000000X1.905000*%
%TD*%
%TA.AperFunction,ComponentPad*%
%ADD13R,2.000000X1.905000*%
%TD*%
%TA.AperFunction,ComponentPad*%
%ADD14O,1.600000X1.600000*%
%TD*%
%TA.AperFunction,ComponentPad*%
%ADD15R,1.600000X1.600000*%
%TD*%
%TA.AperFunction,ComponentPad*%
%ADD16C,1.600000*%
%TD*%
%TA.AperFunction,ComponentPad*%
%ADD17C,1.240000*%
%TD*%
%TA.AperFunction,ComponentPad*%
%ADD18O,1.500000X1.050000*%
%TD*%
%TA.AperFunction,ComponentPad*%
%ADD19R,1.500000X1.050000*%
%TD*%
%TA.AperFunction,ComponentPad*%
%ADD20C,1.800000*%
%TD*%
%TA.AperFunction,ComponentPad*%
%ADD21R,1.800000X1.800000*%
%TD*%
%TA.AperFunction,ComponentPad*%
%ADD22O,2.000000X2.000000*%
%TD*%
%TA.AperFunction,ComponentPad*%
%ADD23R,2.000000X2.000000*%
%TD*%
%TA.AperFunction,ComponentPad*%
%ADD24C,2.000000*%
%TD*%
%TA.AperFunction,Conductor*%
%ADD25C,1.500000*%
%TD*%
G04 APERTURE END LIST*
D10*
%TO.P,J2,1,Pin_1*%
%TO.N,Stylus*%
X90170000Y-66675000D03*
%TD*%
%TO.P,LS1,1,1*%
%TO.N,Net-(C9-Pad2)*%
X228600000Y-90170000D03*
D11*
%TO.P,LS1,2,2*%
%TO.N,GND*%
X228600000Y-92710000D03*
%TD*%
D10*
%TO.P,J1,1,Pin_1*%
%TO.N,VCC*%
X228600000Y-77465000D03*
D11*
%TO.P,J1,2,Pin_2*%
%TO.N,GND*%
X228600000Y-80005000D03*
%TD*%
D12*
%TO.P,U3,3,VO*%
%TO.N,+5V*%
X208280000Y-70810000D03*
%TO.P,U3,2,GND*%
%TO.N,GND*%
X208280000Y-73350000D03*
D13*
%TO.P,U3,1,VI*%
%TO.N,VCC*%
X208280000Y-75890000D03*
%TD*%
D14*
%TO.P,U2,8,GAIN*%
%TO.N,unconnected-(U2-GAIN-Pad8)*%
X194320000Y-86370000D03*
%TO.P,U2,7,BYPASS*%
%TO.N,unconnected-(U2-BYPASS-Pad7)*%
X194320000Y-88910000D03*
%TO.P,U2,6,V+*%
%TO.N,+5V*%
X194320000Y-91450000D03*
%TO.P,U2,5*%
%TO.N,Net-(C10-Pad1)*%
X194320000Y-93990000D03*
%TO.P,U2,4,GND*%
%TO.N,GND*%
X186700000Y-93990000D03*
%TO.P,U2,3,+*%
%TO.N,Net-(R33-WIPER)*%
X186700000Y-91450000D03*
%TO.P,U2,2,-*%
%TO.N,GND*%
X186700000Y-88910000D03*
D15*
%TO.P,U2,1,GAIN*%
%TO.N,unconnected-(U2-GAIN-Pad1)*%
X186700000Y-86370000D03*
%TD*%
D14*
%TO.P,U1,8,VCC*%
%TO.N,+5V*%
X96520000Y-80010000D03*
%TO.P,U1,7,DIS*%
%TO.N,unconnected-(U1-DIS-Pad7)*%
X96520000Y-82550000D03*
%TO.P,U1,6,THR*%
%TO.N,Net-(U1-THR)*%
X96520000Y-85090000D03*
%TO.P,U1,5,CV*%
%TO.N,Net-(U1-CV)*%
X96520000Y-87630000D03*
%TO.P,U1,4,R*%
%TO.N,+5V*%
X88900000Y-87630000D03*
%TO.P,U1,3,Q*%
%TO.N,Stylus*%
X88900000Y-85090000D03*
%TO.P,U1,2,TR*%
%TO.N,Net-(U1-THR)*%
X88900000Y-82550000D03*
D15*
%TO.P,U1,1,GND*%
%TO.N,GND*%
X88900000Y-80010000D03*
%TD*%
D11*
%TO.P,SW1,2*%
%TO.N,GND*%
X149860000Y-69850000D03*
D10*
%TO.P,SW1,1*%
%TO.N,Net-(Q1-C)*%
X147320000Y-69850000D03*
%TD*%
D14*
%TO.P,R36,2*%
%TO.N,GND*%
X168910000Y-81280000D03*
D16*
%TO.P,R36,1*%
%TO.N,Net-(D2-K)*%
X179070000Y-81280000D03*
%TD*%
D14*
%TO.P,R35,2*%
%TO.N,Net-(C10-Pad2)*%
X205660000Y-94020000D03*
D16*
%TO.P,R35,1*%
%TO.N,GND*%
X205660000Y-83860000D03*
%TD*%
D14*
%TO.P,R34,2*%
%TO.N,Net-(R32-Pad1)*%
X228600000Y-101600000D03*
D16*
%TO.P,R34,1*%
%TO.N,ps*%
X228600000Y-111760000D03*
%TD*%
D17*
%TO.P,R33,3,CW*%
%TO.N,GND*%
X69840000Y-81270000D03*
%TO.P,R33,2,WIPER*%
%TO.N,Net-(R33-WIPER)*%
X69840000Y-83810000D03*
%TO.P,R33,1,CCW*%
%TO.N,Net-(R33-CCW)*%
X69840000Y-86350000D03*
%TD*%
D14*
%TO.P,R32,2*%
%TO.N,Net-(R31-Pad1)*%
X220980000Y-101600000D03*
D16*
%TO.P,R32,1*%
%TO.N,Net-(R32-Pad1)*%
X220980000Y-111760000D03*
%TD*%
D14*
%TO.P,R31,2*%
%TO.N,Net-(R30-Pad1)*%
X213360000Y-101600000D03*
D16*
%TO.P,R31,1*%
%TO.N,Net-(R31-Pad1)*%
X213360000Y-111760000D03*
%TD*%
D14*
%TO.P,R30,2*%
%TO.N,Net-(R29-Pad1)*%
X205740000Y-101600000D03*
D16*
%TO.P,R30,1*%
%TO.N,Net-(R30-Pad1)*%
X205740000Y-111760000D03*
%TD*%
D14*
%TO.P,R29,2*%
%TO.N,Net-(R28-Pad1)*%
X198120000Y-101600000D03*
D16*
%TO.P,R29,1*%
%TO.N,Net-(R29-Pad1)*%
X198120000Y-111760000D03*
%TD*%
D14*
%TO.P,R28,2*%
%TO.N,Net-(R27-Pad1)*%
X190500000Y-101600000D03*
D16*
%TO.P,R28,1*%
%TO.N,Net-(R28-Pad1)*%
X190500000Y-111760000D03*
%TD*%
D14*
%TO.P,R27,2*%
%TO.N,Net-(R26-Pad1)*%
X182880000Y-101600000D03*
D16*
%TO.P,R27,1*%
%TO.N,Net-(R27-Pad1)*%
X182880000Y-111760000D03*
%TD*%
D14*
%TO.P,R26,2*%
%TO.N,Net-(R25-Pad1)*%
X175260000Y-101600000D03*
D16*
%TO.P,R26,1*%
%TO.N,Net-(R26-Pad1)*%
X175260000Y-111760000D03*
%TD*%
D14*
%TO.P,R25,2*%
%TO.N,Net-(R24-Pad1)*%
X167640000Y-101600000D03*
D16*
%TO.P,R25,1*%
%TO.N,Net-(R25-Pad1)*%
X167640000Y-111760000D03*
%TD*%
D14*
%TO.P,R24,2*%
%TO.N,Net-(R23-Pad1)*%
X160020000Y-101600000D03*
D16*
%TO.P,R24,1*%
%TO.N,Net-(R24-Pad1)*%
X160020000Y-111760000D03*
%TD*%
D14*
%TO.P,R23,2*%
%TO.N,Net-(R22-Pad1)*%
X152400000Y-101600000D03*
D16*
%TO.P,R23,1*%
%TO.N,Net-(R23-Pad1)*%
X152400000Y-111760000D03*
%TD*%
D14*
%TO.P,R22,2*%
%TO.N,Net-(R21-Pad1)*%
X144780000Y-101600000D03*
D16*
%TO.P,R22,1*%
%TO.N,Net-(R22-Pad1)*%
X144780000Y-111760000D03*
%TD*%
D14*
%TO.P,R21,2*%
%TO.N,Net-(R20-Pad1)*%
X137160000Y-101600000D03*
D16*
%TO.P,R21,1*%
%TO.N,Net-(R21-Pad1)*%
X137160000Y-111760000D03*
%TD*%
D14*
%TO.P,R20,2*%
%TO.N,Net-(R19-Pad1)*%
X129540000Y-101600000D03*
D16*
%TO.P,R20,1*%
%TO.N,Net-(R20-Pad1)*%
X129540000Y-111760000D03*
%TD*%
D14*
%TO.P,R19,2*%
%TO.N,Net-(R18-Pad1)*%
X121920000Y-101600000D03*
D16*
%TO.P,R19,1*%
%TO.N,Net-(R19-Pad1)*%
X121920000Y-111760000D03*
%TD*%
D14*
%TO.P,R18,2*%
%TO.N,Net-(R17-Pad1)*%
X114300000Y-101600000D03*
D16*
%TO.P,R18,1*%
%TO.N,Net-(R18-Pad1)*%
X114300000Y-111760000D03*
%TD*%
D14*
%TO.P,R17,2*%
%TO.N,Net-(R16-Pad1)*%
X106680000Y-101600000D03*
D16*
%TO.P,R17,1*%
%TO.N,Net-(R17-Pad1)*%
X106680000Y-111760000D03*
%TD*%
D14*
%TO.P,R16,2*%
%TO.N,Net-(R15-Pad1)*%
X99060000Y-101600000D03*
D16*
%TO.P,R16,1*%
%TO.N,Net-(R16-Pad1)*%
X99060000Y-111760000D03*
%TD*%
D14*
%TO.P,R15,2*%
%TO.N,Net-(R14-Pad1)*%
X91440000Y-101600000D03*
D16*
%TO.P,R15,1*%
%TO.N,Net-(R15-Pad1)*%
X91440000Y-111760000D03*
%TD*%
D14*
%TO.P,R14,2*%
%TO.N,Net-(R13-Pad1)*%
X83820000Y-101600000D03*
D16*
%TO.P,R14,1*%
%TO.N,Net-(R14-Pad1)*%
X83820000Y-111760000D03*
%TD*%
D14*
%TO.P,R13,2*%
%TO.N,Net-(R12-Pad1)*%
X76200000Y-101600000D03*
D16*
%TO.P,R13,1*%
%TO.N,Net-(R13-Pad1)*%
X76200000Y-111760000D03*
%TD*%
D14*
%TO.P,R12,2*%
%TO.N,Net-(R11-Pad2)*%
X68580000Y-101600000D03*
D16*
%TO.P,R12,1*%
%TO.N,Net-(R12-Pad1)*%
X68580000Y-111760000D03*
%TD*%
D14*
%TO.P,R11,2*%
%TO.N,Net-(R11-Pad2)*%
X68580000Y-93980000D03*
D16*
%TO.P,R11,1*%
%TO.N,Net-(R10-Pad2)*%
X78740000Y-93980000D03*
%TD*%
D14*
%TO.P,R10,2*%
%TO.N,Net-(R10-Pad2)*%
X81280000Y-93980000D03*
D16*
%TO.P,R10,1*%
%TO.N,Net-(R10-Pad1)*%
X91440000Y-93980000D03*
%TD*%
D14*
%TO.P,R9,2*%
%TO.N,Net-(R10-Pad1)*%
X93980000Y-93980000D03*
D16*
%TO.P,R9,1*%
%TO.N,Net-(U1-THR)*%
X104140000Y-93980000D03*
%TD*%
D14*
%TO.P,R8,2*%
%TO.N,Net-(C5-Pad2)*%
X127000000Y-78740000D03*
D16*
%TO.P,R8,1*%
%TO.N,GND*%
X137160000Y-78740000D03*
%TD*%
D14*
%TO.P,R7,2*%
%TO.N,Net-(C4-Pad2)*%
X127000000Y-82550000D03*
D16*
%TO.P,R7,1*%
%TO.N,GND*%
X137160000Y-82550000D03*
%TD*%
D14*
%TO.P,R6,2*%
%TO.N,Net-(Q1-C)*%
X143510000Y-82550000D03*
D16*
%TO.P,R6,1*%
%TO.N,Net-(Q1-B)*%
X143510000Y-72390000D03*
%TD*%
D14*
%TO.P,R5,2*%
%TO.N,Net-(Q1-C)*%
X149860000Y-82550000D03*
D16*
%TO.P,R5,1*%
%TO.N,+5V*%
X160020000Y-82550000D03*
%TD*%
D14*
%TO.P,R4,2*%
%TO.N,Net-(U1-CV)*%
X104130000Y-72380000D03*
D16*
%TO.P,R4,1*%
%TO.N,Net-(R2-WIPER)*%
X93970000Y-72380000D03*
%TD*%
D14*
%TO.P,R3,2*%
%TO.N,GND*%
X85080000Y-74920000D03*
D16*
%TO.P,R3,1*%
%TO.N,Net-(R2-CCW)*%
X74920000Y-74920000D03*
%TD*%
D17*
%TO.P,R2,3,CW*%
%TO.N,Net-(R2-CW)*%
X69840000Y-69840000D03*
%TO.P,R2,2,WIPER*%
%TO.N,Net-(R2-WIPER)*%
X69840000Y-72380000D03*
%TO.P,R2,1,CCW*%
%TO.N,Net-(R2-CCW)*%
X69840000Y-74920000D03*
%TD*%
D14*
%TO.P,R1,2*%
%TO.N,Net-(R2-CW)*%
X74920000Y-69840000D03*
D16*
%TO.P,R1,1*%
%TO.N,+5V*%
X85080000Y-69840000D03*
%TD*%
D18*
%TO.P,Q1,3,C*%
%TO.N,Net-(Q1-C)*%
X138430000Y-71120000D03*
%TO.P,Q1,2,B*%
%TO.N,Net-(Q1-B)*%
X138430000Y-72390000D03*
D19*
%TO.P,Q1,1,E*%
%TO.N,GND*%
X138430000Y-73660000D03*
%TD*%
D20*
%TO.P,D2,2,A*%
%TO.N,+5V*%
X181610000Y-77470000D03*
D21*
%TO.P,D2,1,K*%
%TO.N,Net-(D2-K)*%
X179070000Y-77470000D03*
%TD*%
D22*
%TO.P,D1,2,A*%
%TO.N,+5V*%
X181610000Y-72390000D03*
D23*
%TO.P,D1,1,K*%
%TO.N,Net-(D1-K)*%
X176530000Y-72390000D03*
%TD*%
D16*
%TO.P,C14,2*%
%TO.N,GND*%
X223520000Y-72470000D03*
%TO.P,C14,1*%
%TO.N,VCC*%
X223520000Y-77470000D03*
%TD*%
%TO.P,C13,2*%
%TO.N,GND*%
X200660000Y-77390000D03*
%TO.P,C13,1*%
%TO.N,+5V*%
X200660000Y-72390000D03*
%TD*%
D24*
%TO.P,C12,2*%
%TO.N,GND*%
X215900000Y-72390000D03*
D23*
%TO.P,C12,1*%
%TO.N,VCC*%
X215900000Y-75890000D03*
%TD*%
D24*
%TO.P,C11,2*%
%TO.N,GND*%
X193040000Y-75890000D03*
D23*
%TO.P,C11,1*%
%TO.N,+5V*%
X193040000Y-72390000D03*
%TD*%
D16*
%TO.P,C10,2*%
%TO.N,Net-(C10-Pad2)*%
X201930000Y-93940000D03*
%TO.P,C10,1*%
%TO.N,Net-(C10-Pad1)*%
X201930000Y-88940000D03*
%TD*%
D23*
%TO.P,C9,1*%
%TO.N,Net-(C10-Pad1)*%
X217480000Y-90170000D03*
D24*
%TO.P,C9,2*%
%TO.N,Net-(C9-Pad2)*%
X220980000Y-90170000D03*
%TD*%
D16*
%TO.P,C8,1*%
%TO.N,Net-(R33-CCW)*%
X75000000Y-86350000D03*
%TO.P,C8,2*%
%TO.N,Stylus*%
X80000000Y-86350000D03*
%TD*%
%TO.P,C7,2*%
%TO.N,Net-(U1-THR)*%
X79960000Y-81270000D03*
%TO.P,C7,1*%
%TO.N,GND*%
X74960000Y-81270000D03*
%TD*%
%TO.P,C6,2*%
%TO.N,Net-(Q1-B)*%
X132040000Y-72390000D03*
%TO.P,C6,1*%
%TO.N,Net-(C5-Pad2)*%
X127040000Y-72390000D03*
%TD*%
%TO.P,C5,2*%
%TO.N,Net-(C5-Pad2)*%
X120650000Y-78740000D03*
%TO.P,C5,1*%
%TO.N,Net-(C4-Pad2)*%
X120650000Y-83740000D03*
%TD*%
%TO.P,C4,2*%
%TO.N,Net-(C4-Pad2)*%
X138510000Y-87630000D03*
%TO.P,C4,1*%
%TO.N,Net-(Q1-C)*%
X143510000Y-87630000D03*
%TD*%
%TO.P,C3,2*%
%TO.N,Net-(Q1-C)*%
X132040000Y-68580000D03*
%TO.P,C3,1*%
%TO.N,Net-(U1-CV)*%
X127040000Y-68580000D03*
%TD*%
%TO.P,C2,2*%
%TO.N,GND*%
X166370000Y-74850000D03*
D15*
%TO.P,C2,1*%
%TO.N,Net-(D1-K)*%
X166370000Y-72350000D03*
%TD*%
D16*
%TO.P,C1,2*%
%TO.N,GND*%
X157480000Y-74930000D03*
%TO.P,C1,1*%
%TO.N,Net-(D1-K)*%
X157480000Y-69930000D03*
%TD*%
D25*
%TO.N,Stylus*%
X84455000Y-82550000D02*
X86995000Y-85090000D01*
X90170000Y-74930000D02*
X84455000Y-80645000D01*
X90170000Y-66675000D02*
X90170000Y-74930000D01*
X84455000Y-80645000D02*
X84455000Y-82550000D01*
X86995000Y-85090000D02*
X88900000Y-85090000D01*
%TO.N,+5V*%
X92710000Y-83820000D02*
X96520000Y-80010000D01*
X92710000Y-86360000D02*
X92710000Y-83820000D01*
X88900000Y-87630000D02*
X91440000Y-87630000D01*
X91440000Y-87630000D02*
X92710000Y-86360000D01*
%TO.N,Net-(U1-CV)*%
X101600000Y-87630000D02*
X96520000Y-87630000D01*
X104130000Y-85100000D02*
X101600000Y-87630000D01*
X104130000Y-72380000D02*
X104130000Y-85100000D01*
%TD*%
%TA.AperFunction,Conductor*%
%TO.N,Net-(R13-Pad1)*%
G36*
X80588039Y-110509685D02*
G01*
X80633794Y-110562489D01*
X80645000Y-110614000D01*
X80645000Y-120526000D01*
X80625315Y-120593039D01*
X80572511Y-120638794D01*
X80521000Y-120650000D01*
X71879000Y-120650000D01*
X71811961Y-120630315D01*
X71766206Y-120577511D01*
X71755000Y-120526000D01*
X71755000Y-110614000D01*
X71774685Y-110546961D01*
X71827489Y-110501206D01*
X71879000Y-110490000D01*
X80521000Y-110490000D01*
X80588039Y-110509685D01*
G37*
%TD.AperFunction*%
%TD*%
%TA.AperFunction,Conductor*%
%TO.N,Net-(R15-Pad1)*%
G36*
X95828039Y-110509685D02*
G01*
X95873794Y-110562489D01*
X95885000Y-110614000D01*
X95885000Y-120526000D01*
X95865315Y-120593039D01*
X95812511Y-120638794D01*
X95761000Y-120650000D01*
X87119000Y-120650000D01*
X87051961Y-120630315D01*
X87006206Y-120577511D01*
X86995000Y-120526000D01*
X86995000Y-110614000D01*
X87014685Y-110546961D01*
X87067489Y-110501206D01*
X87119000Y-110490000D01*
X95761000Y-110490000D01*
X95828039Y-110509685D01*
G37*
%TD.AperFunction*%
%TD*%
%TA.AperFunction,Conductor*%
%TO.N,Net-(R14-Pad1)*%
G36*
X86303039Y-110509685D02*
G01*
X86348794Y-110562489D01*
X86360000Y-110614000D01*
X86360000Y-121920000D01*
X90681000Y-121920000D01*
X90748039Y-121939685D01*
X90793794Y-121992489D01*
X90805000Y-122044000D01*
X90805000Y-130051000D01*
X90785315Y-130118039D01*
X90732511Y-130163794D01*
X90681000Y-130175000D01*
X76959000Y-130175000D01*
X76891961Y-130155315D01*
X76846206Y-130102511D01*
X76835000Y-130051000D01*
X76835000Y-122044000D01*
X76854685Y-121976961D01*
X76907489Y-121931206D01*
X76959000Y-121920000D01*
X81280000Y-121920000D01*
X81280000Y-110614000D01*
X81299685Y-110546961D01*
X81352489Y-110501206D01*
X81404000Y-110490000D01*
X86236000Y-110490000D01*
X86303039Y-110509685D01*
G37*
%TD.AperFunction*%
%TD*%
%TA.AperFunction,Conductor*%
%TO.N,Net-(R16-Pad1)*%
G36*
X102178039Y-110509685D02*
G01*
X102223794Y-110562489D01*
X102235000Y-110614000D01*
X102235000Y-130051000D01*
X102215315Y-130118039D01*
X102162511Y-130163794D01*
X102111000Y-130175000D01*
X92199000Y-130175000D01*
X92131961Y-130155315D01*
X92086206Y-130102511D01*
X92075000Y-130051000D01*
X92075000Y-122044000D01*
X92094685Y-121976961D01*
X92147489Y-121931206D01*
X92199000Y-121920000D01*
X96520000Y-121920000D01*
X96520000Y-110614000D01*
X96539685Y-110546961D01*
X96592489Y-110501206D01*
X96644000Y-110490000D01*
X102111000Y-110490000D01*
X102178039Y-110509685D01*
G37*
%TD.AperFunction*%
%TD*%
%TA.AperFunction,Conductor*%
%TO.N,Net-(R17-Pad1)*%
G36*
X109163039Y-110509685D02*
G01*
X109208794Y-110562489D01*
X109219999Y-110613999D01*
X109220000Y-121920000D01*
X113541000Y-121920000D01*
X113608039Y-121939685D01*
X113653794Y-121992489D01*
X113665000Y-122044000D01*
X113665000Y-130051000D01*
X113645315Y-130118039D01*
X113592511Y-130163794D01*
X113541000Y-130175000D01*
X102994000Y-130175000D01*
X102926961Y-130155315D01*
X102881206Y-130102511D01*
X102870000Y-130051000D01*
X102870000Y-110614000D01*
X102889685Y-110546961D01*
X102942489Y-110501206D01*
X102994000Y-110490000D01*
X109096000Y-110490000D01*
X109163039Y-110509685D01*
G37*
%TD.AperFunction*%
%TD*%
%TA.AperFunction,Conductor*%
%TO.N,Net-(R18-Pad1)*%
G36*
X118688039Y-110509685D02*
G01*
X118733794Y-110562489D01*
X118745000Y-110614000D01*
X118745000Y-120526000D01*
X118725315Y-120593039D01*
X118672511Y-120638794D01*
X118621000Y-120650000D01*
X109979000Y-120650000D01*
X109911961Y-120630315D01*
X109866206Y-120577511D01*
X109855000Y-120526000D01*
X109855000Y-110614000D01*
X109874685Y-110546961D01*
X109927489Y-110501206D01*
X109979000Y-110490000D01*
X118621000Y-110490000D01*
X118688039Y-110509685D01*
G37*
%TD.AperFunction*%
%TD*%
%TA.AperFunction,Conductor*%
%TO.N,Net-(R19-Pad1)*%
G36*
X124403039Y-110509685D02*
G01*
X124448794Y-110562489D01*
X124460000Y-110614000D01*
X124460000Y-121920000D01*
X128781000Y-121920000D01*
X128848039Y-121939685D01*
X128893794Y-121992489D01*
X128905000Y-122044000D01*
X128905000Y-130051000D01*
X128885315Y-130118039D01*
X128832511Y-130163794D01*
X128781000Y-130175000D01*
X115059000Y-130175000D01*
X114991961Y-130155315D01*
X114946206Y-130102511D01*
X114935000Y-130051000D01*
X114935000Y-122044000D01*
X114954685Y-121976961D01*
X115007489Y-121931206D01*
X115059000Y-121920000D01*
X119380000Y-121920000D01*
X119380000Y-110614000D01*
X119399685Y-110546961D01*
X119452489Y-110501206D01*
X119504000Y-110490000D01*
X124336000Y-110490000D01*
X124403039Y-110509685D01*
G37*
%TD.AperFunction*%
%TD*%
%TA.AperFunction,Conductor*%
%TO.N,Net-(R20-Pad1)*%
G36*
X133928039Y-110509685D02*
G01*
X133973794Y-110562489D01*
X133985000Y-110614000D01*
X133985000Y-120526000D01*
X133965315Y-120593039D01*
X133912511Y-120638794D01*
X133861000Y-120650000D01*
X125219000Y-120650000D01*
X125151961Y-120630315D01*
X125106206Y-120577511D01*
X125095000Y-120526000D01*
X125095000Y-110614000D01*
X125114685Y-110546961D01*
X125167489Y-110501206D01*
X125219000Y-110490000D01*
X133861000Y-110490000D01*
X133928039Y-110509685D01*
G37*
%TD.AperFunction*%
%TD*%
%TA.AperFunction,Conductor*%
%TO.N,Net-(R12-Pad1)*%
G36*
X71063039Y-110509685D02*
G01*
X71108794Y-110562489D01*
X71120000Y-110613999D01*
X71120000Y-121920000D01*
X75441000Y-121920000D01*
X75508039Y-121939685D01*
X75553794Y-121992489D01*
X75565000Y-122044000D01*
X75565000Y-130051000D01*
X75545315Y-130118039D01*
X75492511Y-130163794D01*
X75441000Y-130175000D01*
X64894000Y-130175000D01*
X64826961Y-130155315D01*
X64781206Y-130102511D01*
X64770000Y-130051000D01*
X64770000Y-110614000D01*
X64789685Y-110546961D01*
X64842489Y-110501206D01*
X64894000Y-110490000D01*
X70996000Y-110490000D01*
X71063039Y-110509685D01*
G37*
%TD.AperFunction*%
%TD*%
%TA.AperFunction,Conductor*%
%TO.N,Net-(R21-Pad1)*%
G36*
X139643039Y-110509685D02*
G01*
X139688794Y-110562489D01*
X139700000Y-110614000D01*
X139700000Y-121920000D01*
X144021000Y-121920000D01*
X144088039Y-121939685D01*
X144133794Y-121992489D01*
X144145000Y-122044000D01*
X144145000Y-130051000D01*
X144125315Y-130118039D01*
X144072511Y-130163794D01*
X144021000Y-130175000D01*
X130299000Y-130175000D01*
X130231961Y-130155315D01*
X130186206Y-130102511D01*
X130175000Y-130051000D01*
X130175000Y-122044000D01*
X130194685Y-121976961D01*
X130247489Y-121931206D01*
X130299000Y-121920000D01*
X134620000Y-121920000D01*
X134620000Y-110614000D01*
X134639685Y-110546961D01*
X134692489Y-110501206D01*
X134744000Y-110490000D01*
X139576000Y-110490000D01*
X139643039Y-110509685D01*
G37*
%TD.AperFunction*%
%TD*%
%TA.AperFunction,Conductor*%
%TO.N,Net-(R22-Pad1)*%
G36*
X149168039Y-110509685D02*
G01*
X149213794Y-110562489D01*
X149225000Y-110614000D01*
X149225000Y-120526000D01*
X149205315Y-120593039D01*
X149152511Y-120638794D01*
X149101000Y-120650000D01*
X140459000Y-120650000D01*
X140391961Y-120630315D01*
X140346206Y-120577511D01*
X140335000Y-120526000D01*
X140335000Y-110614000D01*
X140354685Y-110546961D01*
X140407489Y-110501206D01*
X140459000Y-110490000D01*
X149101000Y-110490000D01*
X149168039Y-110509685D01*
G37*
%TD.AperFunction*%
%TD*%
%TA.AperFunction,Conductor*%
%TO.N,Net-(R23-Pad1)*%
G36*
X155518039Y-110509685D02*
G01*
X155563794Y-110562489D01*
X155575000Y-110614000D01*
X155575000Y-130051000D01*
X155555315Y-130118039D01*
X155502511Y-130163794D01*
X155451000Y-130175000D01*
X145539000Y-130175000D01*
X145471961Y-130155315D01*
X145426206Y-130102511D01*
X145415000Y-130051000D01*
X145415000Y-122044000D01*
X145434685Y-121976961D01*
X145487489Y-121931206D01*
X145539000Y-121920000D01*
X149860000Y-121920000D01*
X149860000Y-110614000D01*
X149879685Y-110546961D01*
X149932489Y-110501206D01*
X149984000Y-110490000D01*
X155451000Y-110490000D01*
X155518039Y-110509685D01*
G37*
%TD.AperFunction*%
%TD*%
%TA.AperFunction,Conductor*%
%TO.N,Net-(R25-Pad1)*%
G36*
X172028039Y-110509685D02*
G01*
X172073794Y-110562489D01*
X172085000Y-110614000D01*
X172085000Y-120526000D01*
X172065315Y-120593039D01*
X172012511Y-120638794D01*
X171961000Y-120650000D01*
X163319000Y-120650000D01*
X163251961Y-120630315D01*
X163206206Y-120577511D01*
X163195000Y-120526000D01*
X163195000Y-110614000D01*
X163214685Y-110546961D01*
X163267489Y-110501206D01*
X163319000Y-110490000D01*
X171961000Y-110490000D01*
X172028039Y-110509685D01*
G37*
%TD.AperFunction*%
%TD*%
%TA.AperFunction,Conductor*%
%TO.N,Net-(R24-Pad1)*%
G36*
X162503039Y-110509685D02*
G01*
X162548794Y-110562489D01*
X162560000Y-110613999D01*
X162560000Y-121920000D01*
X166881000Y-121920000D01*
X166948039Y-121939685D01*
X166993794Y-121992489D01*
X167005000Y-122044000D01*
X167005000Y-130051000D01*
X166985315Y-130118039D01*
X166932511Y-130163794D01*
X166881000Y-130175000D01*
X156969000Y-130175000D01*
X156901961Y-130155315D01*
X156856206Y-130102511D01*
X156845000Y-130051000D01*
X156845000Y-110614000D01*
X156864685Y-110546961D01*
X156917489Y-110501206D01*
X156969000Y-110490000D01*
X162436000Y-110490000D01*
X162503039Y-110509685D01*
G37*
%TD.AperFunction*%
%TD*%
%TA.AperFunction,Conductor*%
%TO.N,Net-(R26-Pad1)*%
G36*
X177743039Y-110509685D02*
G01*
X177788794Y-110562489D01*
X177799999Y-110614000D01*
X177800000Y-121920000D01*
X182121000Y-121920000D01*
X182188039Y-121939685D01*
X182233794Y-121992489D01*
X182245000Y-122044000D01*
X182245000Y-130051000D01*
X182225315Y-130118039D01*
X182172511Y-130163794D01*
X182121000Y-130175000D01*
X169034000Y-130175000D01*
X168966961Y-130155315D01*
X168921206Y-130102511D01*
X168910000Y-130051000D01*
X168910000Y-122044000D01*
X168929685Y-121976961D01*
X168982489Y-121931206D01*
X169034000Y-121920000D01*
X172720000Y-121920000D01*
X172720000Y-110614000D01*
X172739685Y-110546961D01*
X172792489Y-110501206D01*
X172844000Y-110490000D01*
X177676000Y-110490000D01*
X177743039Y-110509685D01*
G37*
%TD.AperFunction*%
%TD*%
%TA.AperFunction,Conductor*%
%TO.N,Net-(R27-Pad1)*%
G36*
X187268039Y-110509685D02*
G01*
X187313794Y-110562489D01*
X187325000Y-110614000D01*
X187325000Y-120526000D01*
X187305315Y-120593039D01*
X187252511Y-120638794D01*
X187201000Y-120650000D01*
X178559000Y-120650000D01*
X178491961Y-120630315D01*
X178446206Y-120577511D01*
X178435000Y-120526000D01*
X178435000Y-110614000D01*
X178454685Y-110546961D01*
X178507489Y-110501206D01*
X178559000Y-110490000D01*
X187201000Y-110490000D01*
X187268039Y-110509685D01*
G37*
%TD.AperFunction*%
%TD*%
%TA.AperFunction,Conductor*%
%TO.N,Net-(R28-Pad1)*%
G36*
X194253039Y-110509685D02*
G01*
X194298794Y-110562489D01*
X194310000Y-110614000D01*
X194310000Y-130051000D01*
X194290315Y-130118039D01*
X194237511Y-130163794D01*
X194186000Y-130175000D01*
X183639000Y-130175000D01*
X183571961Y-130155315D01*
X183526206Y-130102511D01*
X183515000Y-130051000D01*
X183515000Y-122044000D01*
X183534685Y-121976961D01*
X183587489Y-121931206D01*
X183639000Y-121920000D01*
X187960000Y-121920000D01*
X187960000Y-110614000D01*
X187979685Y-110546961D01*
X188032489Y-110501206D01*
X188084000Y-110490000D01*
X194186000Y-110490000D01*
X194253039Y-110509685D01*
G37*
%TD.AperFunction*%
%TD*%
%TA.AperFunction,Conductor*%
%TO.N,Net-(R29-Pad1)*%
G36*
X200603039Y-110509685D02*
G01*
X200648794Y-110562489D01*
X200660000Y-110613999D01*
X200660000Y-121920000D01*
X205616000Y-121920000D01*
X205683039Y-121939685D01*
X205728794Y-121992489D01*
X205740000Y-122044000D01*
X205740000Y-130051000D01*
X205720315Y-130118039D01*
X205667511Y-130163794D01*
X205616000Y-130175000D01*
X195069000Y-130175000D01*
X195001961Y-130155315D01*
X194956206Y-130102511D01*
X194945000Y-130051000D01*
X194945000Y-110614000D01*
X194964685Y-110546961D01*
X195017489Y-110501206D01*
X195069000Y-110490000D01*
X200536000Y-110490000D01*
X200603039Y-110509685D01*
G37*
%TD.AperFunction*%
%TD*%
%TA.AperFunction,Conductor*%
%TO.N,Net-(R30-Pad1)*%
G36*
X210128039Y-110509685D02*
G01*
X210173794Y-110562489D01*
X210185000Y-110614000D01*
X210185000Y-120526000D01*
X210165315Y-120593039D01*
X210112511Y-120638794D01*
X210061000Y-120650000D01*
X201419000Y-120650000D01*
X201351961Y-120630315D01*
X201306206Y-120577511D01*
X201295000Y-120526000D01*
X201295000Y-110614000D01*
X201314685Y-110546961D01*
X201367489Y-110501206D01*
X201419000Y-110490000D01*
X210061000Y-110490000D01*
X210128039Y-110509685D01*
G37*
%TD.AperFunction*%
%TD*%
%TA.AperFunction,Conductor*%
%TO.N,Net-(R31-Pad1)*%
G36*
X215843039Y-110509685D02*
G01*
X215888794Y-110562489D01*
X215900000Y-110614000D01*
X215900000Y-121920000D01*
X220856000Y-121920000D01*
X220923039Y-121939685D01*
X220968794Y-121992489D01*
X220980000Y-122044000D01*
X220980000Y-130051000D01*
X220960315Y-130118039D01*
X220907511Y-130163794D01*
X220856000Y-130175000D01*
X207134000Y-130175000D01*
X207066961Y-130155315D01*
X207021206Y-130102511D01*
X207010000Y-130051000D01*
X207010000Y-122044000D01*
X207029685Y-121976961D01*
X207082489Y-121931206D01*
X207134000Y-121920000D01*
X210820000Y-121920000D01*
X210820000Y-110614000D01*
X210839685Y-110546961D01*
X210892489Y-110501206D01*
X210944000Y-110490000D01*
X215776000Y-110490000D01*
X215843039Y-110509685D01*
G37*
%TD.AperFunction*%
%TD*%
%TA.AperFunction,Conductor*%
%TO.N,Net-(R32-Pad1)*%
G36*
X225368039Y-110509685D02*
G01*
X225413794Y-110562489D01*
X225425000Y-110614000D01*
X225425000Y-120526000D01*
X225405315Y-120593039D01*
X225352511Y-120638794D01*
X225301000Y-120650000D01*
X216659000Y-120650000D01*
X216591961Y-120630315D01*
X216546206Y-120577511D01*
X216535000Y-120526000D01*
X216535000Y-110614000D01*
X216554685Y-110546961D01*
X216607489Y-110501206D01*
X216659000Y-110490000D01*
X225301000Y-110490000D01*
X225368039Y-110509685D01*
G37*
%TD.AperFunction*%
%TD*%
%TA.AperFunction,Conductor*%
%TO.N,ps*%
G36*
X232353039Y-110509685D02*
G01*
X232398794Y-110562489D01*
X232410000Y-110614000D01*
X232410000Y-130051000D01*
X232390315Y-130118039D01*
X232337511Y-130163794D01*
X232286000Y-130175000D01*
X222374000Y-130175000D01*
X222306961Y-130155315D01*
X222261206Y-130102511D01*
X222250000Y-130051000D01*
X222250000Y-122044000D01*
X222269685Y-121976961D01*
X222322489Y-121931206D01*
X222374000Y-121920000D01*
X226060000Y-121920000D01*
X226060000Y-110614000D01*
X226079685Y-110546961D01*
X226132489Y-110501206D01*
X226184000Y-110490000D01*
X232286000Y-110490000D01*
X232353039Y-110509685D01*
G37*
%TD.AperFunction*%
%TD*%
%TA.AperFunction,Conductor*%
%TO.N,GND*%
G36*
X88762539Y-66059685D02*
G01*
X88808294Y-66112489D01*
X88819500Y-66164000D01*
X88819500Y-67572870D01*
X88819501Y-67572876D01*
X88825908Y-67632483D01*
X88876203Y-67767329D01*
X88894766Y-67792126D01*
X88919184Y-67857590D01*
X88919500Y-67866438D01*
X88919500Y-74360663D01*
X88899815Y-74427702D01*
X88883181Y-74448344D01*
X83622885Y-79708639D01*
X83617699Y-79713274D01*
X83587337Y-79737488D01*
X83587333Y-79737492D01*
X83542365Y-79788960D01*
X83539521Y-79792003D01*
X83531064Y-79800461D01*
X83531054Y-79800472D01*
X83504049Y-79832818D01*
X83439234Y-79907004D01*
X83439230Y-79907010D01*
X83436981Y-79910774D01*
X83425746Y-79926608D01*
X83422934Y-79929977D01*
X83422932Y-79929981D01*
X83374316Y-80015659D01*
X83346321Y-80062514D01*
X83323783Y-80100238D01*
X83322247Y-80104332D01*
X83314008Y-80121945D01*
X83311850Y-80125747D01*
X83311846Y-80125757D01*
X83279307Y-80218746D01*
X83244694Y-80310970D01*
X83244689Y-80310988D01*
X83243909Y-80315288D01*
X83238952Y-80334069D01*
X83237503Y-80338209D01*
X83237502Y-80338215D01*
X83222089Y-80435527D01*
X83204500Y-80532448D01*
X83204500Y-80536827D01*
X83202973Y-80556229D01*
X83202289Y-80560540D01*
X83204500Y-80659021D01*
X83204500Y-82476293D01*
X83204110Y-82483231D01*
X83201792Y-82503804D01*
X83199762Y-82521823D01*
X83199761Y-82521831D01*
X83204359Y-82590013D01*
X83204500Y-82594186D01*
X83204500Y-82606156D01*
X83208277Y-82648124D01*
X83214903Y-82746407D01*
X83214903Y-82746412D01*
X83215972Y-82750652D01*
X83219230Y-82769824D01*
X83219623Y-82774190D01*
X83245835Y-82869165D01*
X83269903Y-82964681D01*
X83271715Y-82968670D01*
X83278340Y-82986944D01*
X83279504Y-82991162D01*
X83279507Y-82991170D01*
X83322253Y-83079935D01*
X83362993Y-83169626D01*
X83362994Y-83169629D01*
X83365483Y-83173221D01*
X83375269Y-83190026D01*
X83377166Y-83193965D01*
X83377174Y-83193979D01*
X83435078Y-83273676D01*
X83491180Y-83354655D01*
X83494273Y-83357748D01*
X83506907Y-83372539D01*
X83509478Y-83376078D01*
X83509481Y-83376081D01*
X83580679Y-83444153D01*
X86058642Y-85922116D01*
X86063279Y-85927304D01*
X86087492Y-85957666D01*
X86138967Y-86002639D01*
X86142000Y-86005474D01*
X86150470Y-86013944D01*
X86171756Y-86031715D01*
X86182814Y-86040947D01*
X86257004Y-86105765D01*
X86260750Y-86108003D01*
X86276624Y-86119265D01*
X86279981Y-86122068D01*
X86365659Y-86170683D01*
X86450236Y-86221215D01*
X86454327Y-86222750D01*
X86471955Y-86230996D01*
X86475755Y-86233153D01*
X86568746Y-86265692D01*
X86660976Y-86300307D01*
X86663565Y-86300776D01*
X86665274Y-86301087D01*
X86684089Y-86306053D01*
X86688217Y-86307498D01*
X86746564Y-86316739D01*
X86785527Y-86322910D01*
X86882450Y-86340500D01*
X86882453Y-86340500D01*
X86886828Y-86340500D01*
X86906231Y-86342028D01*
X86907938Y-86342297D01*
X86910540Y-86342710D01*
X87009002Y-86340500D01*
X88080966Y-86340500D01*
X88148005Y-86360185D01*
X88193760Y-86412989D01*
X88203704Y-86482147D01*
X88174679Y-86545703D01*
X88152089Y-86566075D01*
X88060858Y-86629954D01*
X87899954Y-86790858D01*
X87769432Y-86977265D01*
X87769431Y-86977267D01*
X87673261Y-87183502D01*
X87673258Y-87183511D01*
X87614366Y-87403302D01*
X87614364Y-87403313D01*
X87594532Y-87629998D01*
X87594532Y-87630001D01*
X87614364Y-87856686D01*
X87614366Y-87856697D01*
X87673258Y-88076488D01*
X87673261Y-88076497D01*
X87769431Y-88282732D01*
X87769432Y-88282734D01*
X87899954Y-88469141D01*
X88060858Y-88630045D01*
X88060861Y-88630047D01*
X88247266Y-88760568D01*
X88453504Y-88856739D01*
X88453509Y-88856740D01*
X88453511Y-88856741D01*
X88487193Y-88865766D01*
X88673308Y-88915635D01*
X88835230Y-88929801D01*
X88899998Y-88935468D01*
X88900000Y-88935468D01*
X88900002Y-88935468D01*
X88956673Y-88930509D01*
X89126692Y-88915635D01*
X89242050Y-88884724D01*
X89274143Y-88880500D01*
X91366293Y-88880500D01*
X91373231Y-88880889D01*
X91411827Y-88885238D01*
X91411829Y-88885237D01*
X91411830Y-88885238D01*
X91429586Y-88884040D01*
X91480032Y-88880639D01*
X91484188Y-88880500D01*
X91496147Y-88880500D01*
X91496155Y-88880500D01*
X91538123Y-88876722D01*
X91636412Y-88870096D01*
X91640646Y-88869028D01*
X91659841Y-88865767D01*
X91664188Y-88865377D01*
X91759165Y-88839164D01*
X91854683Y-88815096D01*
X91858655Y-88813291D01*
X91876962Y-88806654D01*
X91881170Y-88805493D01*
X91969935Y-88762746D01*
X92059626Y-88722007D01*
X92063220Y-88719516D01*
X92080035Y-88709724D01*
X92083973Y-88707829D01*
X92163676Y-88649921D01*
X92244654Y-88593820D01*
X92247743Y-88590730D01*
X92262545Y-88578088D01*
X92266078Y-88575522D01*
X92334153Y-88504320D01*
X93542127Y-87296345D01*
X93547287Y-87291733D01*
X93577666Y-87267508D01*
X93622632Y-87216039D01*
X93625478Y-87212995D01*
X93629333Y-87209141D01*
X93633944Y-87204530D01*
X93660947Y-87172185D01*
X93725765Y-87097996D01*
X93728006Y-87094243D01*
X93739274Y-87078364D01*
X93742068Y-87075019D01*
X93790683Y-86989340D01*
X93841215Y-86904764D01*
X93842747Y-86900679D01*
X93851003Y-86883033D01*
X93853153Y-86879245D01*
X93885692Y-86786253D01*
X93920307Y-86694024D01*
X93921085Y-86689737D01*
X93926056Y-86670902D01*
X93927498Y-86666783D01*
X93942910Y-86569472D01*
X93942909Y-86569472D01*
X93960500Y-86472549D01*
X93960500Y-86468169D01*
X93962027Y-86448770D01*
X93962710Y-86444460D01*
X93960500Y-86345997D01*
X93960500Y-84389335D01*
X93980185Y-84322296D01*
X93996814Y-84301659D01*
X95170813Y-83127659D01*
X95232134Y-83094176D01*
X95301826Y-83099160D01*
X95357759Y-83141032D01*
X95370873Y-83162934D01*
X95389432Y-83202734D01*
X95439106Y-83273676D01*
X95519954Y-83389141D01*
X95680858Y-83550045D01*
X95680861Y-83550047D01*
X95867266Y-83680568D01*
X95924910Y-83707448D01*
X95925275Y-83707618D01*
X95977714Y-83753791D01*
X95996866Y-83820984D01*
X95976650Y-83887865D01*
X95925275Y-83932382D01*
X95867267Y-83959431D01*
X95867265Y-83959432D01*
X95680858Y-84089954D01*
X95519954Y-84250858D01*
X95389432Y-84437265D01*
X95389431Y-84437267D01*
X95293261Y-84643502D01*
X95293258Y-84643511D01*
X95234366Y-84863302D01*
X95234364Y-84863313D01*
X95214532Y-85089998D01*
X95214532Y-85090001D01*
X95234364Y-85316686D01*
X95234366Y-85316697D01*
X95293258Y-85536488D01*
X95293261Y-85536497D01*
X95389431Y-85742732D01*
X95389432Y-85742734D01*
X95519954Y-85929141D01*
X95680858Y-86090045D01*
X95680861Y-86090047D01*
X95867266Y-86220568D01*
X95904334Y-86237853D01*
X95925275Y-86247618D01*
X95977714Y-86293791D01*
X95996866Y-86360984D01*
X95976650Y-86427865D01*
X95925275Y-86472381D01*
X95908272Y-86480310D01*
X95867267Y-86499431D01*
X95867265Y-86499432D01*
X95680858Y-86629954D01*
X95519954Y-86790858D01*
X95389432Y-86977265D01*
X95389431Y-86977267D01*
X95293261Y-87183502D01*
X95293258Y-87183511D01*
X95234366Y-87403302D01*
X95234364Y-87403313D01*
X95214532Y-87629998D01*
X95214532Y-87630001D01*
X95234364Y-87856686D01*
X95234366Y-87856697D01*
X95293258Y-88076488D01*
X95293261Y-88076497D01*
X95389431Y-88282732D01*
X95389432Y-88282734D01*
X95519954Y-88469141D01*
X95680858Y-88630045D01*
X95680861Y-88630047D01*
X95867266Y-88760568D01*
X96073504Y-88856739D01*
X96073509Y-88856740D01*
X96073511Y-88856741D01*
X96107193Y-88865766D01*
X96293308Y-88915635D01*
X96455230Y-88929801D01*
X96519998Y-88935468D01*
X96520000Y-88935468D01*
X96520002Y-88935468D01*
X96576672Y-88930509D01*
X96746692Y-88915635D01*
X96862050Y-88884724D01*
X96894143Y-88880500D01*
X101526293Y-88880500D01*
X101533231Y-88880889D01*
X101571827Y-88885238D01*
X101571829Y-88885237D01*
X101571830Y-88885238D01*
X101589586Y-88884040D01*
X101640032Y-88880639D01*
X101644188Y-88880500D01*
X101656147Y-88880500D01*
X101656155Y-88880500D01*
X101698123Y-88876722D01*
X101796412Y-88870096D01*
X101800646Y-88869028D01*
X101819841Y-88865767D01*
X101824188Y-88865377D01*
X101919165Y-88839164D01*
X102014683Y-88815096D01*
X102018655Y-88813291D01*
X102036962Y-88806654D01*
X102041170Y-88805493D01*
X102129935Y-88762746D01*
X102219626Y-88722007D01*
X102223220Y-88719516D01*
X102240035Y-88709724D01*
X102243973Y-88707829D01*
X102323676Y-88649921D01*
X102404654Y-88593820D01*
X102407743Y-88590730D01*
X102422545Y-88578088D01*
X102426078Y-88575522D01*
X102494153Y-88504320D01*
X103368472Y-87630001D01*
X137204532Y-87630001D01*
X137224364Y-87856686D01*
X137224366Y-87856697D01*
X137283258Y-88076488D01*
X137283261Y-88076497D01*
X137379431Y-88282732D01*
X137379432Y-88282734D01*
X137509954Y-88469141D01*
X137670858Y-88630045D01*
X137670861Y-88630047D01*
X137857266Y-88760568D01*
X138063504Y-88856739D01*
X138063509Y-88856740D01*
X138063511Y-88856741D01*
X138097193Y-88865766D01*
X138283308Y-88915635D01*
X138445230Y-88929801D01*
X138509998Y-88935468D01*
X138510000Y-88935468D01*
X138510002Y-88935468D01*
X138566672Y-88930509D01*
X138736692Y-88915635D01*
X138956496Y-88856739D01*
X139162734Y-88760568D01*
X139349139Y-88630047D01*
X139510047Y-88469139D01*
X139640568Y-88282734D01*
X139736739Y-88076496D01*
X139795635Y-87856692D01*
X139815468Y-87630001D01*
X142204532Y-87630001D01*
X142224364Y-87856686D01*
X142224366Y-87856697D01*
X142283258Y-88076488D01*
X142283261Y-88076497D01*
X142379431Y-88282732D01*
X142379432Y-88282734D01*
X142509954Y-88469141D01*
X142670858Y-88630045D01*
X142670861Y-88630047D01*
X142857266Y-88760568D01*
X143063504Y-88856739D01*
X143063509Y-88856740D01*
X143063511Y-88856741D01*
X143097193Y-88865766D01*
X143283308Y-88915635D01*
X143445230Y-88929801D01*
X143509998Y-88935468D01*
X143510000Y-88935468D01*
X143510002Y-88935468D01*
X143566672Y-88930509D01*
X143736692Y-88915635D01*
X143956496Y-88856739D01*
X144162734Y-88760568D01*
X144349139Y-88630047D01*
X144510047Y-88469139D01*
X144640568Y-88282734D01*
X144736739Y-88076496D01*
X144795635Y-87856692D01*
X144815468Y-87630000D01*
X144814050Y-87613797D01*
X144806511Y-87527618D01*
X144795635Y-87403308D01*
X144745947Y-87217870D01*
X185399500Y-87217870D01*
X185399501Y-87217876D01*
X185405908Y-87277483D01*
X185456202Y-87412328D01*
X185456206Y-87412335D01*
X185542452Y-87527544D01*
X185542455Y-87527547D01*
X185657664Y-87613793D01*
X185657671Y-87613797D01*
X185792517Y-87664091D01*
X185792516Y-87664091D01*
X185799444Y-87664835D01*
X185852127Y-87670500D01*
X187547872Y-87670499D01*
X187607483Y-87664091D01*
X187742331Y-87613796D01*
X187857546Y-87527546D01*
X187943796Y-87412331D01*
X187994091Y-87277483D01*
X188000500Y-87217873D01*
X188000499Y-85522128D01*
X187994091Y-85462517D01*
X187990166Y-85451994D01*
X187943797Y-85327671D01*
X187943793Y-85327664D01*
X187857547Y-85212455D01*
X187857544Y-85212452D01*
X187742335Y-85126206D01*
X187742328Y-85126202D01*
X187607482Y-85075908D01*
X187607483Y-85075908D01*
X187547883Y-85069501D01*
X187547881Y-85069500D01*
X187547873Y-85069500D01*
X187547864Y-85069500D01*
X185852129Y-85069500D01*
X185852123Y-85069501D01*
X185792516Y-85075908D01*
X185657671Y-85126202D01*
X185657664Y-85126206D01*
X185542455Y-85212452D01*
X185542452Y-85212455D01*
X185456206Y-85327664D01*
X185456202Y-85327671D01*
X185405908Y-85462517D01*
X185400711Y-85510861D01*
X185399501Y-85522123D01*
X185399500Y-85522135D01*
X185399500Y-87217870D01*
X144745947Y-87217870D01*
X144742370Y-87204520D01*
X144736741Y-87183511D01*
X144736738Y-87183502D01*
X144701582Y-87108110D01*
X144640568Y-86977266D01*
X144510047Y-86790861D01*
X144510045Y-86790858D01*
X144349141Y-86629954D01*
X144162734Y-86499432D01*
X144162732Y-86499431D01*
X143956497Y-86403261D01*
X143956488Y-86403258D01*
X143736697Y-86344366D01*
X143736693Y-86344365D01*
X143736692Y-86344365D01*
X143736691Y-86344364D01*
X143736686Y-86344364D01*
X143510002Y-86324532D01*
X143509998Y-86324532D01*
X143283313Y-86344364D01*
X143283302Y-86344366D01*
X143063511Y-86403258D01*
X143063502Y-86403261D01*
X142857267Y-86499431D01*
X142857265Y-86499432D01*
X142670858Y-86629954D01*
X142509954Y-86790858D01*
X142379432Y-86977265D01*
X142379431Y-86977267D01*
X142283261Y-87183502D01*
X142283258Y-87183511D01*
X142224366Y-87403302D01*
X142224364Y-87403313D01*
X142204532Y-87629998D01*
X142204532Y-87630001D01*
X139815468Y-87630001D01*
X139815468Y-87630000D01*
X139814050Y-87613797D01*
X139806511Y-87527618D01*
X139795635Y-87403308D01*
X139742370Y-87204520D01*
X139736741Y-87183511D01*
X139736738Y-87183502D01*
X139701582Y-87108110D01*
X139640568Y-86977266D01*
X139510047Y-86790861D01*
X139510045Y-86790858D01*
X139349141Y-86629954D01*
X139162734Y-86499432D01*
X139162732Y-86499431D01*
X138956497Y-86403261D01*
X138956488Y-86403258D01*
X138736697Y-86344366D01*
X138736693Y-86344365D01*
X138736692Y-86344365D01*
X138736691Y-86344364D01*
X138736686Y-86344364D01*
X138510002Y-86324532D01*
X138509998Y-86324532D01*
X138283313Y-86344364D01*
X138283302Y-86344366D01*
X138063511Y-86403258D01*
X138063502Y-86403261D01*
X137857267Y-86499431D01*
X137857265Y-86499432D01*
X137670858Y-86629954D01*
X137509954Y-86790858D01*
X137379432Y-86977265D01*
X137379431Y-86977267D01*
X137283261Y-87183502D01*
X137283258Y-87183511D01*
X137224366Y-87403302D01*
X137224364Y-87403313D01*
X137204532Y-87629998D01*
X137204532Y-87630001D01*
X103368472Y-87630001D01*
X104962127Y-86036345D01*
X104967287Y-86031733D01*
X104997666Y-86007508D01*
X105042632Y-85956039D01*
X105045478Y-85952995D01*
X105053929Y-85944545D01*
X105053929Y-85944544D01*
X105053944Y-85944530D01*
X105080947Y-85912185D01*
X105145765Y-85837996D01*
X105148006Y-85834243D01*
X105159274Y-85818364D01*
X105162068Y-85815019D01*
X105210683Y-85729340D01*
X105261215Y-85644764D01*
X105262747Y-85640679D01*
X105271003Y-85623033D01*
X105273153Y-85619245D01*
X105305692Y-85526253D01*
X105340307Y-85434024D01*
X105341085Y-85429737D01*
X105346056Y-85410902D01*
X105347498Y-85406783D01*
X105362910Y-85309472D01*
X105362909Y-85309472D01*
X105380500Y-85212549D01*
X105380500Y-85208169D01*
X105382027Y-85188770D01*
X105382710Y-85184460D01*
X105380500Y-85085997D01*
X105380500Y-83740001D01*
X119344532Y-83740001D01*
X119364364Y-83966686D01*
X119364366Y-83966697D01*
X119423258Y-84186488D01*
X119423261Y-84186497D01*
X119519431Y-84392732D01*
X119519432Y-84392734D01*
X119649954Y-84579141D01*
X119810858Y-84740045D01*
X119810861Y-84740047D01*
X119997266Y-84870568D01*
X120203504Y-84966739D01*
X120423308Y-85025635D01*
X120585230Y-85039801D01*
X120649998Y-85045468D01*
X120650000Y-85045468D01*
X120650002Y-85045468D01*
X120706673Y-85040509D01*
X120876692Y-85025635D01*
X121096496Y-84966739D01*
X121302734Y-84870568D01*
X121489139Y-84740047D01*
X121650047Y-84579139D01*
X121780568Y-84392734D01*
X121876739Y-84186496D01*
X121935635Y-83966692D01*
X121955468Y-83740000D01*
X121935635Y-83513308D01*
X121890916Y-83346415D01*
X121876741Y-83293511D01*
X121876738Y-83293502D01*
X121830329Y-83193979D01*
X121780568Y-83087266D01*
X121650047Y-82900861D01*
X121650045Y-82900858D01*
X121489141Y-82739954D01*
X121302734Y-82609432D01*
X121302732Y-82609431D01*
X121175285Y-82550001D01*
X125694532Y-82550001D01*
X125714364Y-82776686D01*
X125714366Y-82776697D01*
X125773258Y-82996488D01*
X125773261Y-82996497D01*
X125869431Y-83202732D01*
X125869432Y-83202734D01*
X125999954Y-83389141D01*
X126160858Y-83550045D01*
X126160861Y-83550047D01*
X126347266Y-83680568D01*
X126553504Y-83776739D01*
X126773308Y-83835635D01*
X126935230Y-83849801D01*
X126999998Y-83855468D01*
X127000000Y-83855468D01*
X127000002Y-83855468D01*
X127056672Y-83850509D01*
X127226692Y-83835635D01*
X127446496Y-83776739D01*
X127652734Y-83680568D01*
X127839139Y-83550047D01*
X128000047Y-83389139D01*
X128130568Y-83202734D01*
X128226739Y-82996496D01*
X128285635Y-82776692D01*
X128305468Y-82550001D01*
X142204532Y-82550001D01*
X142224364Y-82776686D01*
X142224366Y-82776697D01*
X142283258Y-82996488D01*
X142283261Y-82996497D01*
X142379431Y-83202732D01*
X142379432Y-83202734D01*
X142509954Y-83389141D01*
X142670858Y-83550045D01*
X142670861Y-83550047D01*
X142857266Y-83680568D01*
X143063504Y-83776739D01*
X143283308Y-83835635D01*
X143445230Y-83849801D01*
X143509998Y-83855468D01*
X143510000Y-83855468D01*
X143510002Y-83855468D01*
X143566672Y-83850509D01*
X143736692Y-83835635D01*
X143956496Y-83776739D01*
X144162734Y-83680568D01*
X144349139Y-83550047D01*
X144510047Y-83389139D01*
X144640568Y-83202734D01*
X144736739Y-82996496D01*
X144795635Y-82776692D01*
X144815468Y-82550001D01*
X148554532Y-82550001D01*
X148574364Y-82776686D01*
X148574366Y-82776697D01*
X148633258Y-82996488D01*
X148633261Y-82996497D01*
X148729431Y-83202732D01*
X148729432Y-83202734D01*
X148859954Y-83389141D01*
X149020858Y-83550045D01*
X149020861Y-83550047D01*
X149207266Y-83680568D01*
X149413504Y-83776739D01*
X149633308Y-83835635D01*
X149795230Y-83849801D01*
X149859998Y-83855468D01*
X149860000Y-83855468D01*
X149860002Y-83855468D01*
X149916673Y-83850509D01*
X150086692Y-83835635D01*
X150306496Y-83776739D01*
X150512734Y-83680568D01*
X150699139Y-83550047D01*
X150860047Y-83389139D01*
X150990568Y-83202734D01*
X151086739Y-82996496D01*
X151145635Y-82776692D01*
X151165468Y-82550001D01*
X158714532Y-82550001D01*
X158734364Y-82776686D01*
X158734366Y-82776697D01*
X158793258Y-82996488D01*
X158793261Y-82996497D01*
X158889431Y-83202732D01*
X158889432Y-83202734D01*
X159019954Y-83389141D01*
X159180858Y-83550045D01*
X159180861Y-83550047D01*
X159367266Y-83680568D01*
X159573504Y-83776739D01*
X159793308Y-83835635D01*
X159955230Y-83849801D01*
X160019998Y-83855468D01*
X160020000Y-83855468D01*
X160020002Y-83855468D01*
X160076673Y-83850509D01*
X160246692Y-83835635D01*
X160466496Y-83776739D01*
X160672734Y-83680568D01*
X160859139Y-83550047D01*
X161020047Y-83389139D01*
X161150568Y-83202734D01*
X161246739Y-82996496D01*
X161305635Y-82776692D01*
X161325468Y-82550000D01*
X161322253Y-82513258D01*
X161305635Y-82323313D01*
X161305635Y-82323308D01*
X161250928Y-82119139D01*
X161246741Y-82103511D01*
X161246738Y-82103502D01*
X161150568Y-81897266D01*
X161020047Y-81710861D01*
X161020045Y-81710858D01*
X160859141Y-81549954D01*
X160672734Y-81419432D01*
X160672732Y-81419431D01*
X160466497Y-81323261D01*
X160466488Y-81323258D01*
X160305048Y-81280001D01*
X177764532Y-81280001D01*
X177784364Y-81506686D01*
X177784366Y-81506697D01*
X177843258Y-81726488D01*
X177843261Y-81726497D01*
X177939431Y-81932732D01*
X177939432Y-81932734D01*
X178069954Y-82119141D01*
X178230858Y-82280045D01*
X178230861Y-82280047D01*
X178417266Y-82410568D01*
X178623504Y-82506739D01*
X178623509Y-82506740D01*
X178623511Y-82506741D01*
X178676415Y-82520916D01*
X178843308Y-82565635D01*
X179005230Y-82579801D01*
X179069998Y-82585468D01*
X179070000Y-82585468D01*
X179070002Y-82585468D01*
X179126672Y-82580509D01*
X179296692Y-82565635D01*
X179516496Y-82506739D01*
X179722734Y-82410568D01*
X179909139Y-82280047D01*
X180070047Y-82119139D01*
X180200568Y-81932734D01*
X180296739Y-81726496D01*
X180355635Y-81506692D01*
X180375468Y-81280000D01*
X180355635Y-81053308D01*
X180296739Y-80833504D01*
X180200568Y-80627266D01*
X180070047Y-80440861D01*
X180070045Y-80440858D01*
X179909141Y-80279954D01*
X179722734Y-80149432D01*
X179722732Y-80149431D01*
X179516497Y-80053261D01*
X179516488Y-80053258D01*
X179296697Y-79994366D01*
X179296693Y-79994365D01*
X179296692Y-79994365D01*
X179296691Y-79994364D01*
X179296686Y-79994364D01*
X179070002Y-79974532D01*
X179069998Y-79974532D01*
X178843313Y-79994364D01*
X178843302Y-79994366D01*
X178623511Y-80053258D01*
X178623502Y-80053261D01*
X178417267Y-80149431D01*
X178417265Y-80149432D01*
X178230858Y-80279954D01*
X178069954Y-80440858D01*
X177939432Y-80627265D01*
X177939431Y-80627267D01*
X177843261Y-80833502D01*
X177843258Y-80833511D01*
X177784366Y-81053302D01*
X177784364Y-81053313D01*
X177764532Y-81279998D01*
X177764532Y-81280001D01*
X160305048Y-81280001D01*
X160246697Y-81264366D01*
X160246693Y-81264365D01*
X160246692Y-81264365D01*
X160246691Y-81264364D01*
X160246686Y-81264364D01*
X160020002Y-81244532D01*
X160019998Y-81244532D01*
X159793313Y-81264364D01*
X159793302Y-81264366D01*
X159573511Y-81323258D01*
X159573502Y-81323261D01*
X159367267Y-81419431D01*
X159367265Y-81419432D01*
X159180858Y-81549954D01*
X159019954Y-81710858D01*
X158889432Y-81897265D01*
X158889431Y-81897267D01*
X158793261Y-82103502D01*
X158793258Y-82103511D01*
X158734366Y-82323302D01*
X158734364Y-82323313D01*
X158714532Y-82549998D01*
X158714532Y-82550001D01*
X151165468Y-82550001D01*
X151165468Y-82550000D01*
X151162253Y-82513258D01*
X151145635Y-82323313D01*
X151145635Y-82323308D01*
X151090928Y-82119139D01*
X151086741Y-82103511D01*
X151086738Y-82103502D01*
X150990568Y-81897266D01*
X150860047Y-81710861D01*
X150860045Y-81710858D01*
X150699141Y-81549954D01*
X150512734Y-81419432D01*
X150512732Y-81419431D01*
X150306497Y-81323261D01*
X150306488Y-81323258D01*
X150086697Y-81264366D01*
X150086693Y-81264365D01*
X150086692Y-81264365D01*
X150086691Y-81264364D01*
X150086686Y-81264364D01*
X149860002Y-81244532D01*
X149859998Y-81244532D01*
X149633313Y-81264364D01*
X149633302Y-81264366D01*
X149413511Y-81323258D01*
X149413502Y-81323261D01*
X149207267Y-81419431D01*
X149207265Y-81419432D01*
X149020858Y-81549954D01*
X148859954Y-81710858D01*
X148729432Y-81897265D01*
X148729431Y-81897267D01*
X148633261Y-82103502D01*
X148633258Y-82103511D01*
X148574366Y-82323302D01*
X148574364Y-82323313D01*
X148554532Y-82549998D01*
X148554532Y-82550001D01*
X144815468Y-82550001D01*
X144815468Y-82550000D01*
X144812253Y-82513258D01*
X144795635Y-82323313D01*
X144795635Y-82323308D01*
X144740928Y-82119139D01*
X144736741Y-82103511D01*
X144736738Y-82103502D01*
X144640568Y-81897266D01*
X144510047Y-81710861D01*
X144510045Y-81710858D01*
X144349141Y-81549954D01*
X144162734Y-81419432D01*
X144162732Y-81419431D01*
X143956497Y-81323261D01*
X143956488Y-81323258D01*
X143736697Y-81264366D01*
X143736693Y-81264365D01*
X143736692Y-81264365D01*
X143736691Y-81264364D01*
X143736686Y-81264364D01*
X143510002Y-81244532D01*
X143509998Y-81244532D01*
X143283313Y-81264364D01*
X143283302Y-81264366D01*
X143063511Y-81323258D01*
X143063502Y-81323261D01*
X142857267Y-81419431D01*
X142857265Y-81419432D01*
X142670858Y-81549954D01*
X142509954Y-81710858D01*
X142379432Y-81897265D01*
X142379431Y-81897267D01*
X142283261Y-82103502D01*
X142283258Y-82103511D01*
X142224366Y-82323302D01*
X142224364Y-82323313D01*
X142204532Y-82549998D01*
X142204532Y-82550001D01*
X128305468Y-82550001D01*
X128305468Y-82550000D01*
X128302253Y-82513258D01*
X128285635Y-82323313D01*
X128285635Y-82323308D01*
X128230928Y-82119139D01*
X128226741Y-82103511D01*
X128226738Y-82103502D01*
X128130568Y-81897266D01*
X128000047Y-81710861D01*
X128000045Y-81710858D01*
X127839141Y-81549954D01*
X127652734Y-81419432D01*
X127652732Y-81419431D01*
X127446497Y-81323261D01*
X127446488Y-81323258D01*
X127226697Y-81264366D01*
X127226693Y-81264365D01*
X127226692Y-81264365D01*
X127226691Y-81264364D01*
X127226686Y-81264364D01*
X127000002Y-81244532D01*
X126999998Y-81244532D01*
X126773313Y-81264364D01*
X126773302Y-81264366D01*
X126553511Y-81323258D01*
X126553502Y-81323261D01*
X126347267Y-81419431D01*
X126347265Y-81419432D01*
X126160858Y-81549954D01*
X125999954Y-81710858D01*
X125869432Y-81897265D01*
X125869431Y-81897267D01*
X125773261Y-82103502D01*
X125773258Y-82103511D01*
X125714366Y-82323302D01*
X125714364Y-82323313D01*
X125694532Y-82549998D01*
X125694532Y-82550001D01*
X121175285Y-82550001D01*
X121096497Y-82513261D01*
X121096488Y-82513258D01*
X120876697Y-82454366D01*
X120876693Y-82454365D01*
X120876692Y-82454365D01*
X120876691Y-82454364D01*
X120876686Y-82454364D01*
X120650002Y-82434532D01*
X120649998Y-82434532D01*
X120423313Y-82454364D01*
X120423302Y-82454366D01*
X120203511Y-82513258D01*
X120203502Y-82513261D01*
X119997267Y-82609431D01*
X119997265Y-82609432D01*
X119810858Y-82739954D01*
X119649954Y-82900858D01*
X119519432Y-83087265D01*
X119519431Y-83087267D01*
X119423261Y-83293502D01*
X119423258Y-83293511D01*
X119364366Y-83513302D01*
X119364364Y-83513313D01*
X119344532Y-83739998D01*
X119344532Y-83740001D01*
X105380500Y-83740001D01*
X105380499Y-78740001D01*
X119344532Y-78740001D01*
X119364364Y-78966686D01*
X119364366Y-78966697D01*
X119423258Y-79186488D01*
X119423261Y-79186497D01*
X119519431Y-79392732D01*
X119519432Y-79392734D01*
X119649954Y-79579141D01*
X119810858Y-79740045D01*
X119810861Y-79740047D01*
X119997266Y-79870568D01*
X120203504Y-79966739D01*
X120423308Y-80025635D01*
X120585230Y-80039801D01*
X120649998Y-80045468D01*
X120650000Y-80045468D01*
X120650002Y-80045468D01*
X120706673Y-80040509D01*
X120876692Y-80025635D01*
X121096496Y-79966739D01*
X121302734Y-79870568D01*
X121489139Y-79740047D01*
X121650047Y-79579139D01*
X121780568Y-79392734D01*
X121876739Y-79186496D01*
X121935635Y-78966692D01*
X121952634Y-78772384D01*
X121955468Y-78740001D01*
X125694532Y-78740001D01*
X125714364Y-78966686D01*
X125714366Y-78966697D01*
X125773258Y-79186488D01*
X125773261Y-79186497D01*
X125869431Y-79392732D01*
X125869432Y-79392734D01*
X125999954Y-79579141D01*
X126160858Y-79740045D01*
X126160861Y-79740047D01*
X126347266Y-79870568D01*
X126553504Y-79966739D01*
X126773308Y-80025635D01*
X126935230Y-80039801D01*
X126999998Y-80045468D01*
X127000000Y-80045468D01*
X127000002Y-80045468D01*
X127056672Y-80040509D01*
X127226692Y-80025635D01*
X127446496Y-79966739D01*
X127652734Y-79870568D01*
X127839139Y-79740047D01*
X128000047Y-79579139D01*
X128130568Y-79392734D01*
X128226739Y-79186496D01*
X128285635Y-78966692D01*
X128302634Y-78772384D01*
X128305468Y-78740001D01*
X128305468Y-78739998D01*
X128289487Y-78557335D01*
X128285635Y-78513308D01*
X128260063Y-78417870D01*
X177669500Y-78417870D01*
X177669501Y-78417876D01*
X177675908Y-78477483D01*
X177726202Y-78612328D01*
X177726206Y-78612335D01*
X177812452Y-78727544D01*
X177812455Y-78727547D01*
X177927664Y-78813793D01*
X177927671Y-78813797D01*
X178062517Y-78864091D01*
X178062516Y-78864091D01*
X178069444Y-78864835D01*
X178122127Y-78870500D01*
X180017872Y-78870499D01*
X180077483Y-78864091D01*
X180212331Y-78813796D01*
X180327546Y-78727546D01*
X180413796Y-78612331D01*
X180442454Y-78535493D01*
X180484326Y-78479559D01*
X180549790Y-78455141D01*
X180618063Y-78469992D01*
X180649866Y-78494843D01*
X180657302Y-78502920D01*
X180658215Y-78503912D01*
X180658222Y-78503918D01*
X180841365Y-78646464D01*
X180841371Y-78646468D01*
X180841374Y-78646470D01*
X181045497Y-78756936D01*
X181122179Y-78783261D01*
X181265015Y-78832297D01*
X181265017Y-78832297D01*
X181265019Y-78832298D01*
X181493951Y-78870500D01*
X181493952Y-78870500D01*
X181726048Y-78870500D01*
X181726049Y-78870500D01*
X181954981Y-78832298D01*
X182174503Y-78756936D01*
X182378626Y-78646470D01*
X182561784Y-78503913D01*
X182718979Y-78333153D01*
X182845924Y-78138849D01*
X182939157Y-77926300D01*
X182996134Y-77701305D01*
X182996516Y-77696697D01*
X183015300Y-77470006D01*
X183015300Y-77470001D01*
X222214532Y-77470001D01*
X222234364Y-77696686D01*
X222234366Y-77696697D01*
X222293258Y-77916488D01*
X222293261Y-77916497D01*
X222389431Y-78122732D01*
X222389432Y-78122734D01*
X222519954Y-78309141D01*
X222680858Y-78470045D01*
X222680861Y-78470047D01*
X222867266Y-78600568D01*
X223073504Y-78696739D01*
X223293308Y-78755635D01*
X223455230Y-78769801D01*
X223519998Y-78775468D01*
X223520000Y-78775468D01*
X223520002Y-78775468D01*
X223576673Y-78770509D01*
X223746692Y-78755635D01*
X223966496Y-78696739D01*
X224172734Y-78600568D01*
X224359139Y-78470047D01*
X224466316Y-78362870D01*
X227249500Y-78362870D01*
X227249501Y-78362876D01*
X227255908Y-78422483D01*
X227306202Y-78557328D01*
X227306206Y-78557335D01*
X227392452Y-78672544D01*
X227392455Y-78672547D01*
X227507664Y-78758793D01*
X227507671Y-78758797D01*
X227642517Y-78809091D01*
X227642516Y-78809091D01*
X227649444Y-78809835D01*
X227702127Y-78815500D01*
X229497872Y-78815499D01*
X229557483Y-78809091D01*
X229692331Y-78758796D01*
X229807546Y-78672546D01*
X229893796Y-78557331D01*
X229944091Y-78422483D01*
X229950500Y-78362873D01*
X229950499Y-76567128D01*
X229944091Y-76507517D01*
X229933472Y-76479047D01*
X229893797Y-76372671D01*
X229893793Y-76372664D01*
X229807547Y-76257455D01*
X229807544Y-76257452D01*
X229692335Y-76171206D01*
X229692328Y-76171202D01*
X229557482Y-76120908D01*
X229557483Y-76120908D01*
X229497883Y-76114501D01*
X229497881Y-76114500D01*
X229497873Y-76114500D01*
X229497864Y-76114500D01*
X227702129Y-76114500D01*
X227702123Y-76114501D01*
X227642516Y-76120908D01*
X227507671Y-76171202D01*
X227507664Y-76171206D01*
X227392455Y-76257452D01*
X227392452Y-76257455D01*
X227306206Y-76372664D01*
X227306202Y-76372671D01*
X227255908Y-76507517D01*
X227254337Y-76522135D01*
X227249501Y-76567123D01*
X227249500Y-76567135D01*
X227249500Y-78362870D01*
X224466316Y-78362870D01*
X224520047Y-78309139D01*
X224650568Y-78122734D01*
X224746739Y-77916496D01*
X224805635Y-77696692D01*
X224822634Y-77502384D01*
X224825468Y-77470001D01*
X224825468Y-77469998D01*
X224813552Y-77333797D01*
X224805635Y-77243308D01*
X224746739Y-77023504D01*
X224650568Y-76817266D01*
X224520047Y-76630861D01*
X224520045Y-76630858D01*
X224359141Y-76469954D01*
X224172734Y-76339432D01*
X224172732Y-76339431D01*
X223966497Y-76243261D01*
X223966488Y-76243258D01*
X223746697Y-76184366D01*
X223746693Y-76184365D01*
X223746692Y-76184365D01*
X223746691Y-76184364D01*
X223746686Y-76184364D01*
X223520002Y-76164532D01*
X223519998Y-76164532D01*
X223293313Y-76184364D01*
X223293302Y-76184366D01*
X223073511Y-76243258D01*
X223073502Y-76243261D01*
X222867267Y-76339431D01*
X222867265Y-76339432D01*
X222680858Y-76469954D01*
X222519954Y-76630858D01*
X222389432Y-76817265D01*
X222389431Y-76817267D01*
X222293261Y-77023502D01*
X222293258Y-77023511D01*
X222234366Y-77243302D01*
X222234364Y-77243313D01*
X222214532Y-77469998D01*
X222214532Y-77470001D01*
X183015300Y-77470001D01*
X183015300Y-77469993D01*
X182996135Y-77238702D01*
X182996133Y-77238691D01*
X182939157Y-77013699D01*
X182885059Y-76890370D01*
X206779500Y-76890370D01*
X206779501Y-76890376D01*
X206785908Y-76949983D01*
X206836202Y-77084828D01*
X206836206Y-77084835D01*
X206922452Y-77200044D01*
X206922455Y-77200047D01*
X207037664Y-77286293D01*
X207037671Y-77286297D01*
X207172517Y-77336591D01*
X207172516Y-77336591D01*
X207179444Y-77337335D01*
X207232127Y-77343000D01*
X209327872Y-77342999D01*
X209387483Y-77336591D01*
X209522331Y-77286296D01*
X209637546Y-77200046D01*
X209723796Y-77084831D01*
X209774091Y-76949983D01*
X209775393Y-76937870D01*
X214399500Y-76937870D01*
X214399501Y-76937876D01*
X214405908Y-76997483D01*
X214456202Y-77132328D01*
X214456206Y-77132335D01*
X214542452Y-77247544D01*
X214542455Y-77247547D01*
X214657664Y-77333793D01*
X214657671Y-77333797D01*
X214792517Y-77384091D01*
X214792516Y-77384091D01*
X214799444Y-77384835D01*
X214852127Y-77390500D01*
X216947872Y-77390499D01*
X217007483Y-77384091D01*
X217142331Y-77333796D01*
X217257546Y-77247546D01*
X217343796Y-77132331D01*
X217394091Y-76997483D01*
X217400500Y-76937873D01*
X217400499Y-74842128D01*
X217394091Y-74782517D01*
X217361512Y-74695169D01*
X217343797Y-74647671D01*
X217343793Y-74647664D01*
X217257547Y-74532455D01*
X217257544Y-74532452D01*
X217142335Y-74446206D01*
X217142328Y-74446202D01*
X217007482Y-74395908D01*
X217007483Y-74395908D01*
X216947883Y-74389501D01*
X216947881Y-74389500D01*
X216947873Y-74389500D01*
X216947864Y-74389500D01*
X214852129Y-74389500D01*
X214852123Y-74389501D01*
X214792516Y-74395908D01*
X214657671Y-74446202D01*
X214657664Y-74446206D01*
X214542455Y-74532452D01*
X214542452Y-74532455D01*
X214456206Y-74647664D01*
X214456202Y-74647671D01*
X214405908Y-74782517D01*
X214400802Y-74830016D01*
X214399501Y-74842123D01*
X214399500Y-74842135D01*
X214399500Y-76937870D01*
X209775393Y-76937870D01*
X209780500Y-76890373D01*
X209780499Y-74889628D01*
X209774091Y-74830017D01*
X209756374Y-74782516D01*
X209723797Y-74695171D01*
X209723793Y-74695164D01*
X209637547Y-74579955D01*
X209637544Y-74579952D01*
X209522335Y-74493706D01*
X209522328Y-74493702D01*
X209387482Y-74443408D01*
X209387483Y-74443408D01*
X209327883Y-74437001D01*
X209327881Y-74437000D01*
X209327873Y-74437000D01*
X209327864Y-74437000D01*
X207232129Y-74437000D01*
X207232123Y-74437001D01*
X207172516Y-74443408D01*
X207037671Y-74493702D01*
X207037664Y-74493706D01*
X206922455Y-74579952D01*
X206922452Y-74579955D01*
X206836206Y-74695164D01*
X206836202Y-74695171D01*
X206785908Y-74830017D01*
X206779501Y-74889616D01*
X206779501Y-74889623D01*
X206779500Y-74889635D01*
X206779500Y-76890370D01*
X182885059Y-76890370D01*
X182845924Y-76801151D01*
X182718983Y-76606852D01*
X182718980Y-76606849D01*
X182718979Y-76606847D01*
X182561784Y-76436087D01*
X182561779Y-76436083D01*
X182561777Y-76436081D01*
X182378634Y-76293535D01*
X182378628Y-76293531D01*
X182174504Y-76183064D01*
X182174495Y-76183061D01*
X181954984Y-76107702D01*
X181764450Y-76075908D01*
X181726049Y-76069500D01*
X181493951Y-76069500D01*
X181455550Y-76075908D01*
X181265015Y-76107702D01*
X181045504Y-76183061D01*
X181045495Y-76183064D01*
X180841371Y-76293531D01*
X180841365Y-76293535D01*
X180658222Y-76436081D01*
X180658218Y-76436085D01*
X180649866Y-76445158D01*
X180589979Y-76481148D01*
X180520141Y-76479047D01*
X180462525Y-76439522D01*
X180442455Y-76404507D01*
X180413797Y-76327671D01*
X180413793Y-76327664D01*
X180327547Y-76212455D01*
X180327544Y-76212452D01*
X180212335Y-76126206D01*
X180212328Y-76126202D01*
X180077482Y-76075908D01*
X180077483Y-76075908D01*
X180017883Y-76069501D01*
X180017881Y-76069500D01*
X180017873Y-76069500D01*
X180017864Y-76069500D01*
X178122129Y-76069500D01*
X178122123Y-76069501D01*
X178062516Y-76075908D01*
X177927671Y-76126202D01*
X177927664Y-76126206D01*
X177812455Y-76212452D01*
X177812452Y-76212455D01*
X177726206Y-76327664D01*
X177726202Y-76327671D01*
X177675908Y-76462517D01*
X177669501Y-76522116D01*
X177669500Y-76522135D01*
X177669500Y-78417870D01*
X128260063Y-78417870D01*
X128226739Y-78293504D01*
X128130568Y-78087266D01*
X128000047Y-77900861D01*
X128000045Y-77900858D01*
X127839141Y-77739954D01*
X127652734Y-77609432D01*
X127652732Y-77609431D01*
X127446497Y-77513261D01*
X127446488Y-77513258D01*
X127226697Y-77454366D01*
X127226693Y-77454365D01*
X127226692Y-77454365D01*
X127226691Y-77454364D01*
X127226686Y-77454364D01*
X127000002Y-77434532D01*
X126999998Y-77434532D01*
X126773313Y-77454364D01*
X126773302Y-77454366D01*
X126553511Y-77513258D01*
X126553502Y-77513261D01*
X126347267Y-77609431D01*
X126347265Y-77609432D01*
X126160858Y-77739954D01*
X125999954Y-77900858D01*
X125869432Y-78087265D01*
X125869431Y-78087267D01*
X125773261Y-78293502D01*
X125773258Y-78293511D01*
X125714366Y-78513302D01*
X125714364Y-78513313D01*
X125694532Y-78739998D01*
X125694532Y-78740001D01*
X121955468Y-78740001D01*
X121955468Y-78739998D01*
X121939487Y-78557335D01*
X121935635Y-78513308D01*
X121876739Y-78293504D01*
X121780568Y-78087266D01*
X121650047Y-77900861D01*
X121650045Y-77900858D01*
X121489141Y-77739954D01*
X121302734Y-77609432D01*
X121302732Y-77609431D01*
X121096497Y-77513261D01*
X121096488Y-77513258D01*
X120876697Y-77454366D01*
X120876693Y-77454365D01*
X120876692Y-77454365D01*
X120876691Y-77454364D01*
X120876686Y-77454364D01*
X120650002Y-77434532D01*
X120649998Y-77434532D01*
X120423313Y-77454364D01*
X120423302Y-77454366D01*
X120203511Y-77513258D01*
X120203502Y-77513261D01*
X119997267Y-77609431D01*
X119997265Y-77609432D01*
X119810858Y-77739954D01*
X119649954Y-77900858D01*
X119519432Y-78087265D01*
X119519431Y-78087267D01*
X119423261Y-78293502D01*
X119423258Y-78293511D01*
X119364366Y-78513302D01*
X119364364Y-78513313D01*
X119344532Y-78739998D01*
X119344532Y-78740001D01*
X105380499Y-78740001D01*
X105380499Y-72754142D01*
X105384724Y-72722050D01*
X105384725Y-72722048D01*
X105415635Y-72606692D01*
X105434593Y-72390001D01*
X125734532Y-72390001D01*
X125754364Y-72616686D01*
X125754366Y-72616697D01*
X125813258Y-72836488D01*
X125813261Y-72836497D01*
X125909431Y-73042732D01*
X125909432Y-73042734D01*
X126039954Y-73229141D01*
X126200858Y-73390045D01*
X126216021Y-73400662D01*
X126387266Y-73520568D01*
X126593504Y-73616739D01*
X126813308Y-73675635D01*
X126975230Y-73689801D01*
X127039998Y-73695468D01*
X127040000Y-73695468D01*
X127040002Y-73695468D01*
X127096672Y-73690509D01*
X127266692Y-73675635D01*
X127486496Y-73616739D01*
X127692734Y-73520568D01*
X127879139Y-73390047D01*
X128040047Y-73229139D01*
X128170568Y-73042734D01*
X128266739Y-72836496D01*
X128325635Y-72616692D01*
X128345468Y-72390001D01*
X130734532Y-72390001D01*
X130754364Y-72616686D01*
X130754366Y-72616697D01*
X130813258Y-72836488D01*
X130813261Y-72836497D01*
X130909431Y-73042732D01*
X130909432Y-73042734D01*
X131039954Y-73229141D01*
X131200858Y-73390045D01*
X131216021Y-73400662D01*
X131387266Y-73520568D01*
X131593504Y-73616739D01*
X131813308Y-73675635D01*
X131975230Y-73689801D01*
X132039998Y-73695468D01*
X132040000Y-73695468D01*
X132040002Y-73695468D01*
X132096673Y-73690509D01*
X132266692Y-73675635D01*
X132486496Y-73616739D01*
X132692734Y-73520568D01*
X132879139Y-73390047D01*
X133040047Y-73229139D01*
X133170568Y-73042734D01*
X133266739Y-72836496D01*
X133325635Y-72616692D01*
X133345468Y-72390000D01*
X137174538Y-72390000D01*
X137176701Y-72411962D01*
X137194337Y-72591031D01*
X137252978Y-72784345D01*
X137348198Y-72962488D01*
X137348203Y-72962495D01*
X137476352Y-73118647D01*
X137572894Y-73197876D01*
X137632506Y-73246798D01*
X137632509Y-73246799D01*
X137632511Y-73246801D01*
X137810654Y-73342021D01*
X137810656Y-73342021D01*
X137810659Y-73342023D01*
X138003967Y-73400662D01*
X138154620Y-73415500D01*
X138154623Y-73415500D01*
X138705377Y-73415500D01*
X138705380Y-73415500D01*
X138856033Y-73400662D01*
X139049341Y-73342023D01*
X139227494Y-73246798D01*
X139383647Y-73118647D01*
X139511798Y-72962494D01*
X139607023Y-72784341D01*
X139665662Y-72591033D01*
X139685462Y-72390001D01*
X142204532Y-72390001D01*
X142224364Y-72616686D01*
X142224366Y-72616697D01*
X142283258Y-72836488D01*
X142283261Y-72836497D01*
X142379431Y-73042732D01*
X142379432Y-73042734D01*
X142509954Y-73229141D01*
X142670858Y-73390045D01*
X142686021Y-73400662D01*
X142857266Y-73520568D01*
X143063504Y-73616739D01*
X143283308Y-73675635D01*
X143445230Y-73689801D01*
X143509998Y-73695468D01*
X143510000Y-73695468D01*
X143510002Y-73695468D01*
X143566672Y-73690509D01*
X143736692Y-73675635D01*
X143956496Y-73616739D01*
X144162734Y-73520568D01*
X144349139Y-73390047D01*
X144510047Y-73229139D01*
X144531942Y-73197870D01*
X165069500Y-73197870D01*
X165069501Y-73197876D01*
X165075908Y-73257483D01*
X165126202Y-73392328D01*
X165126206Y-73392335D01*
X165212452Y-73507544D01*
X165212455Y-73507547D01*
X165327664Y-73593793D01*
X165327671Y-73593797D01*
X165462517Y-73644091D01*
X165462516Y-73644091D01*
X165469444Y-73644835D01*
X165522127Y-73650500D01*
X167217872Y-73650499D01*
X167277483Y-73644091D01*
X167412331Y-73593796D01*
X167527546Y-73507546D01*
X167579705Y-73437870D01*
X175029500Y-73437870D01*
X175029501Y-73437876D01*
X175035908Y-73497483D01*
X175086202Y-73632328D01*
X175086206Y-73632335D01*
X175172452Y-73747544D01*
X175172455Y-73747547D01*
X175287664Y-73833793D01*
X175287671Y-73833797D01*
X175422517Y-73884091D01*
X175422516Y-73884091D01*
X175429444Y-73884835D01*
X175482127Y-73890500D01*
X177577872Y-73890499D01*
X177637483Y-73884091D01*
X177772331Y-73833796D01*
X177887546Y-73747546D01*
X177973796Y-73632331D01*
X178024091Y-73497483D01*
X178030500Y-73437873D01*
X178030500Y-72390005D01*
X180104357Y-72390005D01*
X180124890Y-72637812D01*
X180124892Y-72637824D01*
X180185936Y-72878881D01*
X180285826Y-73106606D01*
X180421833Y-73314782D01*
X180421836Y-73314785D01*
X180590256Y-73497738D01*
X180786491Y-73650474D01*
X181005190Y-73768828D01*
X181240386Y-73849571D01*
X181485665Y-73890500D01*
X181734335Y-73890500D01*
X181979614Y-73849571D01*
X182214810Y-73768828D01*
X182433509Y-73650474D01*
X182629744Y-73497738D01*
X182684856Y-73437870D01*
X191539500Y-73437870D01*
X191539501Y-73437876D01*
X191545908Y-73497483D01*
X191596202Y-73632328D01*
X191596206Y-73632335D01*
X191682452Y-73747544D01*
X191682455Y-73747547D01*
X191797664Y-73833793D01*
X191797671Y-73833797D01*
X191932517Y-73884091D01*
X191932516Y-73884091D01*
X191939444Y-73884835D01*
X191992127Y-73890500D01*
X194087872Y-73890499D01*
X194147483Y-73884091D01*
X194282331Y-73833796D01*
X194397546Y-73747546D01*
X194483796Y-73632331D01*
X194534091Y-73497483D01*
X194540500Y-73437873D01*
X194540500Y-72390001D01*
X199354532Y-72390001D01*
X199374364Y-72616686D01*
X199374366Y-72616697D01*
X199433258Y-72836488D01*
X199433261Y-72836497D01*
X199529431Y-73042732D01*
X199529432Y-73042734D01*
X199659954Y-73229141D01*
X199820858Y-73390045D01*
X199836021Y-73400662D01*
X200007266Y-73520568D01*
X200213504Y-73616739D01*
X200433308Y-73675635D01*
X200595230Y-73689801D01*
X200659998Y-73695468D01*
X200660000Y-73695468D01*
X200660002Y-73695468D01*
X200716673Y-73690509D01*
X200886692Y-73675635D01*
X201106496Y-73616739D01*
X201312734Y-73520568D01*
X201499139Y-73390047D01*
X201660047Y-73229139D01*
X201790568Y-73042734D01*
X201886739Y-72836496D01*
X201945635Y-72616692D01*
X201965468Y-72390000D01*
X201965467Y-72389994D01*
X201947880Y-72188967D01*
X201945635Y-72163308D01*
X201891307Y-71960551D01*
X201886741Y-71943511D01*
X201886738Y-71943502D01*
X201866974Y-71901118D01*
X201790568Y-71737266D01*
X201660047Y-71550861D01*
X201660045Y-71550858D01*
X201499141Y-71389954D01*
X201312734Y-71259432D01*
X201312732Y-71259431D01*
X201106497Y-71163261D01*
X201106488Y-71163258D01*
X200886697Y-71104366D01*
X200886693Y-71104365D01*
X200886692Y-71104365D01*
X200886691Y-71104364D01*
X200886686Y-71104364D01*
X200660002Y-71084532D01*
X200659998Y-71084532D01*
X200433313Y-71104364D01*
X200433302Y-71104366D01*
X200213511Y-71163258D01*
X200213502Y-71163261D01*
X200007267Y-71259431D01*
X200007265Y-71259432D01*
X199820858Y-71389954D01*
X199659954Y-71550858D01*
X199529432Y-71737265D01*
X199529431Y-71737267D01*
X199433261Y-71943502D01*
X199433258Y-71943511D01*
X199374366Y-72163302D01*
X199374364Y-72163313D01*
X199354532Y-72389998D01*
X199354532Y-72390001D01*
X194540500Y-72390001D01*
X194540499Y-71342128D01*
X194534091Y-71282517D01*
X194525506Y-71259500D01*
X194483797Y-71147671D01*
X194483793Y-71147664D01*
X194397547Y-71032455D01*
X194397544Y-71032452D01*
X194282335Y-70946206D01*
X194282328Y-70946202D01*
X194239958Y-70930399D01*
X206779500Y-70930399D01*
X206782138Y-70946206D01*
X206819134Y-71167916D01*
X206897318Y-71395656D01*
X206897321Y-71395665D01*
X207011929Y-71607441D01*
X207023177Y-71621892D01*
X207159829Y-71797463D01*
X207336990Y-71960551D01*
X207538578Y-72092255D01*
X207759095Y-72188983D01*
X207992524Y-72248095D01*
X208172400Y-72263000D01*
X208172402Y-72263000D01*
X208387598Y-72263000D01*
X208387600Y-72263000D01*
X208567476Y-72248095D01*
X208800905Y-72188983D01*
X209021422Y-72092255D01*
X209223010Y-71960551D01*
X209400171Y-71797463D01*
X209548072Y-71607439D01*
X209662679Y-71395664D01*
X209740866Y-71167913D01*
X209780500Y-70930399D01*
X209780500Y-70689601D01*
X209740866Y-70452087D01*
X209734106Y-70432397D01*
X209684019Y-70286497D01*
X209662679Y-70224336D01*
X209548072Y-70012561D01*
X209400171Y-69822537D01*
X209223010Y-69659449D01*
X209021422Y-69527745D01*
X209021419Y-69527743D01*
X209021418Y-69527743D01*
X208800905Y-69431017D01*
X208754000Y-69419139D01*
X208567476Y-69371905D01*
X208567475Y-69371904D01*
X208567472Y-69371904D01*
X208423329Y-69359960D01*
X208387600Y-69357000D01*
X208172400Y-69357000D01*
X208139898Y-69359693D01*
X207992527Y-69371904D01*
X207759094Y-69431017D01*
X207538581Y-69527743D01*
X207538577Y-69527745D01*
X207538578Y-69527745D01*
X207336990Y-69659449D01*
X207159829Y-69822537D01*
X207126286Y-69865633D01*
X207011929Y-70012558D01*
X206897321Y-70224334D01*
X206897318Y-70224343D01*
X206819134Y-70452083D01*
X206794767Y-70598110D01*
X206779500Y-70689601D01*
X206779500Y-70930399D01*
X194239958Y-70930399D01*
X194147482Y-70895908D01*
X194147483Y-70895908D01*
X194087883Y-70889501D01*
X194087881Y-70889500D01*
X194087873Y-70889500D01*
X194087864Y-70889500D01*
X191992129Y-70889500D01*
X191992123Y-70889501D01*
X191932516Y-70895908D01*
X191797671Y-70946202D01*
X191797664Y-70946206D01*
X191682455Y-71032452D01*
X191682452Y-71032455D01*
X191596206Y-71147664D01*
X191596202Y-71147671D01*
X191545908Y-71282517D01*
X191539501Y-71342116D01*
X191539501Y-71342123D01*
X191539500Y-71342135D01*
X191539500Y-73437870D01*
X182684856Y-73437870D01*
X182798164Y-73314785D01*
X182934173Y-73106607D01*
X183034063Y-72878881D01*
X183095108Y-72637821D01*
X183096859Y-72616697D01*
X183101324Y-72562802D01*
X183115643Y-72390000D01*
X183096859Y-72163308D01*
X183095109Y-72142187D01*
X183095107Y-72142175D01*
X183034063Y-71901118D01*
X182934173Y-71673393D01*
X182798166Y-71465217D01*
X182776557Y-71441744D01*
X182629744Y-71282262D01*
X182433509Y-71129526D01*
X182433507Y-71129525D01*
X182433506Y-71129524D01*
X182214811Y-71011172D01*
X182214802Y-71011169D01*
X181979616Y-70930429D01*
X181734335Y-70889500D01*
X181485665Y-70889500D01*
X181240383Y-70930429D01*
X181005197Y-71011169D01*
X181005188Y-71011172D01*
X180786493Y-71129524D01*
X180590257Y-71282261D01*
X180421833Y-71465217D01*
X180285826Y-71673393D01*
X180185936Y-71901118D01*
X180124892Y-72142175D01*
X180124890Y-72142187D01*
X180104357Y-72389994D01*
X180104357Y-72390005D01*
X178030500Y-72390005D01*
X178030499Y-71342128D01*
X178024091Y-71282517D01*
X178015506Y-71259500D01*
X177973797Y-71147671D01*
X177973793Y-71147664D01*
X177887547Y-71032455D01*
X177887544Y-71032452D01*
X177772335Y-70946206D01*
X177772328Y-70946202D01*
X177637482Y-70895908D01*
X177637483Y-70895908D01*
X177577883Y-70889501D01*
X177577881Y-70889500D01*
X177577873Y-70889500D01*
X177577864Y-70889500D01*
X175482129Y-70889500D01*
X175482123Y-70889501D01*
X175422516Y-70895908D01*
X175287671Y-70946202D01*
X175287664Y-70946206D01*
X175172455Y-71032452D01*
X175172452Y-71032455D01*
X175086206Y-71147664D01*
X175086202Y-71147671D01*
X175035908Y-71282517D01*
X175029501Y-71342116D01*
X175029501Y-71342123D01*
X175029500Y-71342135D01*
X175029500Y-73437870D01*
X167579705Y-73437870D01*
X167613796Y-73392331D01*
X167664091Y-73257483D01*
X167670500Y-73197873D01*
X167670499Y-71502128D01*
X167664091Y-71442517D01*
X167646616Y-71395665D01*
X167613797Y-71307671D01*
X167613793Y-71307664D01*
X167527547Y-71192455D01*
X167527544Y-71192452D01*
X167412335Y-71106206D01*
X167412328Y-71106202D01*
X167277482Y-71055908D01*
X167277483Y-71055908D01*
X167217883Y-71049501D01*
X167217881Y-71049500D01*
X167217873Y-71049500D01*
X167217864Y-71049500D01*
X165522129Y-71049500D01*
X165522123Y-71049501D01*
X165462516Y-71055908D01*
X165327671Y-71106202D01*
X165327664Y-71106206D01*
X165212455Y-71192452D01*
X165212452Y-71192455D01*
X165126206Y-71307664D01*
X165126202Y-71307671D01*
X165075908Y-71442517D01*
X165069501Y-71502116D01*
X165069501Y-71502123D01*
X165069500Y-71502135D01*
X165069500Y-73197870D01*
X144531942Y-73197870D01*
X144640568Y-73042734D01*
X144736739Y-72836496D01*
X144795635Y-72616692D01*
X144815468Y-72390000D01*
X144815467Y-72389994D01*
X144797880Y-72188967D01*
X144795635Y-72163308D01*
X144741307Y-71960551D01*
X144736741Y-71943511D01*
X144736738Y-71943502D01*
X144716974Y-71901118D01*
X144640568Y-71737266D01*
X144510047Y-71550861D01*
X144510045Y-71550858D01*
X144349141Y-71389954D01*
X144162734Y-71259432D01*
X144162732Y-71259431D01*
X143956497Y-71163261D01*
X143956488Y-71163258D01*
X143736697Y-71104366D01*
X143736693Y-71104365D01*
X143736692Y-71104365D01*
X143736691Y-71104364D01*
X143736686Y-71104364D01*
X143510002Y-71084532D01*
X143509998Y-71084532D01*
X143283313Y-71104364D01*
X143283302Y-71104366D01*
X143063511Y-71163258D01*
X143063502Y-71163261D01*
X142857267Y-71259431D01*
X142857265Y-71259432D01*
X142670858Y-71389954D01*
X142509954Y-71550858D01*
X142379432Y-71737265D01*
X142379431Y-71737267D01*
X142283261Y-71943502D01*
X142283258Y-71943511D01*
X142224366Y-72163302D01*
X142224364Y-72163313D01*
X142204532Y-72389998D01*
X142204532Y-72390001D01*
X139685462Y-72390001D01*
X139685462Y-72390000D01*
X139665662Y-72188967D01*
X139607023Y-71995659D01*
X139511798Y-71817506D01*
X139511794Y-71817502D01*
X139509631Y-71813454D01*
X139495389Y-71745051D01*
X139509631Y-71696546D01*
X139511794Y-71692498D01*
X139511798Y-71692494D01*
X139607023Y-71514341D01*
X139665662Y-71321033D01*
X139685462Y-71120000D01*
X139665662Y-70918967D01*
X139613761Y-70747870D01*
X145969500Y-70747870D01*
X145969501Y-70747876D01*
X145975908Y-70807483D01*
X146026202Y-70942328D01*
X146026206Y-70942335D01*
X146112452Y-71057544D01*
X146112455Y-71057547D01*
X146227664Y-71143793D01*
X146227671Y-71143797D01*
X146362517Y-71194091D01*
X146362516Y-71194091D01*
X146369444Y-71194835D01*
X146422127Y-71200500D01*
X148217872Y-71200499D01*
X148277483Y-71194091D01*
X148412331Y-71143796D01*
X148527546Y-71057546D01*
X148613796Y-70942331D01*
X148664091Y-70807483D01*
X148670500Y-70747873D01*
X148670500Y-69930001D01*
X156174532Y-69930001D01*
X156194364Y-70156686D01*
X156194366Y-70156697D01*
X156253258Y-70376488D01*
X156253261Y-70376497D01*
X156349431Y-70582732D01*
X156349432Y-70582734D01*
X156479954Y-70769141D01*
X156640858Y-70930045D01*
X156658410Y-70942335D01*
X156827266Y-71060568D01*
X157033504Y-71156739D01*
X157033509Y-71156740D01*
X157033511Y-71156741D01*
X157075206Y-71167913D01*
X157253308Y-71215635D01*
X157415230Y-71229801D01*
X157479998Y-71235468D01*
X157480000Y-71235468D01*
X157480002Y-71235468D01*
X157536673Y-71230509D01*
X157706692Y-71215635D01*
X157926496Y-71156739D01*
X158132734Y-71060568D01*
X158319139Y-70930047D01*
X158480047Y-70769139D01*
X158610568Y-70582734D01*
X158706739Y-70376496D01*
X158765635Y-70156692D01*
X158785468Y-69930000D01*
X158765635Y-69703308D01*
X158706739Y-69483504D01*
X158610568Y-69277266D01*
X158480047Y-69090861D01*
X158480045Y-69090858D01*
X158319141Y-68929954D01*
X158132734Y-68799432D01*
X158132732Y-68799431D01*
X157926497Y-68703261D01*
X157926488Y-68703258D01*
X157706697Y-68644366D01*
X157706693Y-68644365D01*
X157706692Y-68644365D01*
X157706691Y-68644364D01*
X157706686Y-68644364D01*
X157480002Y-68624532D01*
X157479998Y-68624532D01*
X157253313Y-68644364D01*
X157253302Y-68644366D01*
X157033511Y-68703258D01*
X157033502Y-68703261D01*
X156827267Y-68799431D01*
X156827265Y-68799432D01*
X156640858Y-68929954D01*
X156479954Y-69090858D01*
X156349432Y-69277265D01*
X156349431Y-69277267D01*
X156253261Y-69483502D01*
X156253258Y-69483511D01*
X156194366Y-69703302D01*
X156194364Y-69703313D01*
X156174532Y-69929998D01*
X156174532Y-69930001D01*
X148670500Y-69930001D01*
X148670499Y-68952128D01*
X148664091Y-68892517D01*
X148644486Y-68839954D01*
X148613797Y-68757671D01*
X148613793Y-68757664D01*
X148527547Y-68642455D01*
X148527544Y-68642452D01*
X148412335Y-68556206D01*
X148412328Y-68556202D01*
X148277482Y-68505908D01*
X148277483Y-68505908D01*
X148217883Y-68499501D01*
X148217881Y-68499500D01*
X148217873Y-68499500D01*
X148217864Y-68499500D01*
X146422129Y-68499500D01*
X146422123Y-68499501D01*
X146362516Y-68505908D01*
X146227671Y-68556202D01*
X146227664Y-68556206D01*
X146112455Y-68642452D01*
X146112452Y-68642455D01*
X146026206Y-68757664D01*
X146026202Y-68757671D01*
X145975908Y-68892517D01*
X145970589Y-68941994D01*
X145969501Y-68952123D01*
X145969500Y-68952135D01*
X145969500Y-70747870D01*
X139613761Y-70747870D01*
X139607023Y-70725659D01*
X139607021Y-70725656D01*
X139607021Y-70725654D01*
X139511801Y-70547511D01*
X139511799Y-70547509D01*
X139511798Y-70547506D01*
X139417331Y-70432397D01*
X139383647Y-70391352D01*
X139227495Y-70263203D01*
X139227488Y-70263198D01*
X139049345Y-70167978D01*
X138856031Y-70109337D01*
X138745900Y-70098490D01*
X138705380Y-70094500D01*
X138154620Y-70094500D01*
X138117433Y-70098162D01*
X138003968Y-70109337D01*
X137810654Y-70167978D01*
X137632511Y-70263198D01*
X137632504Y-70263203D01*
X137476352Y-70391352D01*
X137348203Y-70547504D01*
X137348198Y-70547511D01*
X137252978Y-70725654D01*
X137194337Y-70918968D01*
X137174538Y-71120000D01*
X137194337Y-71321031D01*
X137252978Y-71514345D01*
X137350367Y-71696547D01*
X137364609Y-71764950D01*
X137350367Y-71813453D01*
X137252978Y-71995654D01*
X137194337Y-72188968D01*
X137174538Y-72389998D01*
X137174538Y-72390000D01*
X133345468Y-72390000D01*
X133345467Y-72389994D01*
X133327880Y-72188967D01*
X133325635Y-72163308D01*
X133271307Y-71960551D01*
X133266741Y-71943511D01*
X133266738Y-71943502D01*
X133246974Y-71901118D01*
X133170568Y-71737266D01*
X133040047Y-71550861D01*
X133040045Y-71550858D01*
X132879141Y-71389954D01*
X132692734Y-71259432D01*
X132692732Y-71259431D01*
X132486497Y-71163261D01*
X132486488Y-71163258D01*
X132266697Y-71104366D01*
X132266693Y-71104365D01*
X132266692Y-71104365D01*
X132266691Y-71104364D01*
X132266686Y-71104364D01*
X132040002Y-71084532D01*
X132039998Y-71084532D01*
X131813313Y-71104364D01*
X131813302Y-71104366D01*
X131593511Y-71163258D01*
X131593502Y-71163261D01*
X131387267Y-71259431D01*
X131387265Y-71259432D01*
X131200858Y-71389954D01*
X131039954Y-71550858D01*
X130909432Y-71737265D01*
X130909431Y-71737267D01*
X130813261Y-71943502D01*
X130813258Y-71943511D01*
X130754366Y-72163302D01*
X130754364Y-72163313D01*
X130734532Y-72389998D01*
X130734532Y-72390001D01*
X128345468Y-72390001D01*
X128345468Y-72390000D01*
X128345467Y-72389994D01*
X128327880Y-72188967D01*
X128325635Y-72163308D01*
X128271307Y-71960551D01*
X128266741Y-71943511D01*
X128266738Y-71943502D01*
X128246974Y-71901118D01*
X128170568Y-71737266D01*
X128040047Y-71550861D01*
X128040045Y-71550858D01*
X127879141Y-71389954D01*
X127692734Y-71259432D01*
X127692732Y-71259431D01*
X127486497Y-71163261D01*
X127486488Y-71163258D01*
X127266697Y-71104366D01*
X127266693Y-71104365D01*
X127266692Y-71104365D01*
X127266691Y-71104364D01*
X127266686Y-71104364D01*
X127040002Y-71084532D01*
X127039998Y-71084532D01*
X126813313Y-71104364D01*
X126813302Y-71104366D01*
X126593511Y-71163258D01*
X126593502Y-71163261D01*
X126387267Y-71259431D01*
X126387265Y-71259432D01*
X126200858Y-71389954D01*
X126039954Y-71550858D01*
X125909432Y-71737265D01*
X125909431Y-71737267D01*
X125813261Y-71943502D01*
X125813258Y-71943511D01*
X125754366Y-72163302D01*
X125754364Y-72163313D01*
X125734532Y-72389998D01*
X125734532Y-72390001D01*
X105434593Y-72390001D01*
X105435468Y-72380000D01*
X105415635Y-72153308D01*
X105359420Y-71943511D01*
X105356741Y-71933511D01*
X105356738Y-71933502D01*
X105260568Y-71727266D01*
X105130047Y-71540861D01*
X105130045Y-71540858D01*
X104969141Y-71379954D01*
X104782734Y-71249432D01*
X104782732Y-71249431D01*
X104576497Y-71153261D01*
X104576488Y-71153258D01*
X104356697Y-71094366D01*
X104356693Y-71094365D01*
X104356692Y-71094365D01*
X104356691Y-71094364D01*
X104356686Y-71094364D01*
X104130002Y-71074532D01*
X104129998Y-71074532D01*
X103903313Y-71094364D01*
X103903302Y-71094366D01*
X103683511Y-71153258D01*
X103683502Y-71153261D01*
X103477267Y-71249431D01*
X103477265Y-71249432D01*
X103290858Y-71379954D01*
X103129954Y-71540858D01*
X102999432Y-71727265D01*
X102999431Y-71727267D01*
X102903261Y-71933502D01*
X102903258Y-71933511D01*
X102844366Y-72153302D01*
X102844364Y-72153313D01*
X102824532Y-72379998D01*
X102824532Y-72380001D01*
X102842994Y-72591031D01*
X102844365Y-72606692D01*
X102875275Y-72722050D01*
X102879500Y-72754142D01*
X102879500Y-84530663D01*
X102859815Y-84597702D01*
X102843181Y-84618344D01*
X101118345Y-86343181D01*
X101057022Y-86376666D01*
X101030664Y-86379500D01*
X97339034Y-86379500D01*
X97271995Y-86359815D01*
X97226240Y-86307011D01*
X97216296Y-86237853D01*
X97245321Y-86174297D01*
X97267911Y-86153925D01*
X97274571Y-86149261D01*
X97359139Y-86090047D01*
X97520047Y-85929139D01*
X97650568Y-85742734D01*
X97746739Y-85536496D01*
X97805635Y-85316692D01*
X97825468Y-85090000D01*
X97823674Y-85069500D01*
X97814684Y-84966738D01*
X97805635Y-84863308D01*
X97746739Y-84643504D01*
X97650568Y-84437266D01*
X97520047Y-84250861D01*
X97520045Y-84250858D01*
X97359141Y-84089954D01*
X97172734Y-83959432D01*
X97172728Y-83959429D01*
X97114725Y-83932382D01*
X97062285Y-83886210D01*
X97043133Y-83819017D01*
X97063348Y-83752135D01*
X97114725Y-83707618D01*
X97115090Y-83707448D01*
X97172734Y-83680568D01*
X97359139Y-83550047D01*
X97520047Y-83389139D01*
X97650568Y-83202734D01*
X97746739Y-82996496D01*
X97805635Y-82776692D01*
X97825468Y-82550000D01*
X97822253Y-82513258D01*
X97805635Y-82323313D01*
X97805635Y-82323308D01*
X97750928Y-82119139D01*
X97746741Y-82103511D01*
X97746738Y-82103502D01*
X97650568Y-81897266D01*
X97520047Y-81710861D01*
X97520045Y-81710858D01*
X97359141Y-81549954D01*
X97172735Y-81419433D01*
X97172736Y-81419433D01*
X97172734Y-81419432D01*
X97132935Y-81400873D01*
X97080497Y-81354701D01*
X97061346Y-81287507D01*
X97081562Y-81220626D01*
X97097656Y-81200816D01*
X97129490Y-81168982D01*
X97164762Y-81144285D01*
X97172734Y-81140568D01*
X97359139Y-81010047D01*
X97520047Y-80849139D01*
X97650568Y-80662734D01*
X97746739Y-80456496D01*
X97805635Y-80236692D01*
X97825468Y-80010000D01*
X97805635Y-79783308D01*
X97746739Y-79563504D01*
X97650568Y-79357266D01*
X97520047Y-79170861D01*
X97520045Y-79170858D01*
X97359141Y-79009954D01*
X97172734Y-78879432D01*
X97172732Y-78879431D01*
X96966497Y-78783261D01*
X96966488Y-78783258D01*
X96746697Y-78724366D01*
X96746693Y-78724365D01*
X96746692Y-78724365D01*
X96746691Y-78724364D01*
X96746686Y-78724364D01*
X96520002Y-78704532D01*
X96519998Y-78704532D01*
X96293313Y-78724364D01*
X96293302Y-78724366D01*
X96073511Y-78783258D01*
X96073502Y-78783261D01*
X95867267Y-78879431D01*
X95867265Y-78879432D01*
X95680858Y-79009954D01*
X95519954Y-79170858D01*
X95389432Y-79357264D01*
X95385712Y-79365242D01*
X95361015Y-79400509D01*
X91877885Y-82883639D01*
X91872699Y-82888274D01*
X91842337Y-82912488D01*
X91842333Y-82912492D01*
X91797365Y-82963960D01*
X91794521Y-82967003D01*
X91786064Y-82975461D01*
X91786054Y-82975472D01*
X91759049Y-83007818D01*
X91694234Y-83082004D01*
X91694230Y-83082010D01*
X91691981Y-83085774D01*
X91680746Y-83101608D01*
X91677934Y-83104977D01*
X91677932Y-83104981D01*
X91629316Y-83190659D01*
X91601321Y-83237514D01*
X91578783Y-83275238D01*
X91577247Y-83279332D01*
X91569008Y-83296945D01*
X91566850Y-83300747D01*
X91566846Y-83300757D01*
X91534307Y-83393746D01*
X91499694Y-83485970D01*
X91499689Y-83485988D01*
X91498909Y-83490288D01*
X91493952Y-83509069D01*
X91492503Y-83513209D01*
X91492502Y-83513215D01*
X91477089Y-83610527D01*
X91459500Y-83707448D01*
X91459500Y-83711827D01*
X91457973Y-83731229D01*
X91457289Y-83735540D01*
X91459500Y-83834021D01*
X91459500Y-85790664D01*
X91439815Y-85857703D01*
X91423181Y-85878345D01*
X90958345Y-86343181D01*
X90897022Y-86376666D01*
X90870664Y-86379500D01*
X89719034Y-86379500D01*
X89651995Y-86359815D01*
X89606240Y-86307011D01*
X89596296Y-86237853D01*
X89625321Y-86174297D01*
X89647911Y-86153925D01*
X89654571Y-86149261D01*
X89739139Y-86090047D01*
X89900047Y-85929139D01*
X90030568Y-85742734D01*
X90126739Y-85536496D01*
X90185635Y-85316692D01*
X90205468Y-85090000D01*
X90203674Y-85069500D01*
X90194684Y-84966738D01*
X90185635Y-84863308D01*
X90126739Y-84643504D01*
X90030568Y-84437266D01*
X89900047Y-84250861D01*
X89900045Y-84250858D01*
X89739141Y-84089954D01*
X89552734Y-83959432D01*
X89552728Y-83959429D01*
X89494725Y-83932382D01*
X89442285Y-83886210D01*
X89423133Y-83819017D01*
X89443348Y-83752135D01*
X89494725Y-83707618D01*
X89495090Y-83707448D01*
X89552734Y-83680568D01*
X89739139Y-83550047D01*
X89900047Y-83389139D01*
X90030568Y-83202734D01*
X90126739Y-82996496D01*
X90185635Y-82776692D01*
X90205468Y-82550000D01*
X90202253Y-82513258D01*
X90185635Y-82323313D01*
X90185635Y-82323308D01*
X90130928Y-82119139D01*
X90126741Y-82103511D01*
X90126738Y-82103502D01*
X90030568Y-81897266D01*
X89900047Y-81710861D01*
X89900045Y-81710858D01*
X89739141Y-81549954D01*
X89552734Y-81419432D01*
X89552732Y-81419431D01*
X89346497Y-81323261D01*
X89346488Y-81323258D01*
X89126697Y-81264366D01*
X89126693Y-81264365D01*
X89126692Y-81264365D01*
X89126691Y-81264364D01*
X89126686Y-81264364D01*
X88900002Y-81244532D01*
X88899998Y-81244532D01*
X88673313Y-81264364D01*
X88673302Y-81264366D01*
X88453511Y-81323258D01*
X88453502Y-81323261D01*
X88247267Y-81419431D01*
X88247265Y-81419432D01*
X88060858Y-81549954D01*
X87899954Y-81710858D01*
X87769432Y-81897265D01*
X87769431Y-81897267D01*
X87673261Y-82103502D01*
X87673258Y-82103511D01*
X87614366Y-82323302D01*
X87614364Y-82323313D01*
X87594532Y-82549998D01*
X87594532Y-82550001D01*
X87614364Y-82776686D01*
X87614366Y-82776697D01*
X87673258Y-82996488D01*
X87673261Y-82996497D01*
X87769431Y-83202732D01*
X87769432Y-83202734D01*
X87899954Y-83389141D01*
X88060858Y-83550045D01*
X88152089Y-83613925D01*
X88195714Y-83668501D01*
X88202908Y-83738000D01*
X88171386Y-83800355D01*
X88111156Y-83835769D01*
X88080966Y-83839500D01*
X87564336Y-83839500D01*
X87497297Y-83819815D01*
X87476655Y-83803181D01*
X85741819Y-82068344D01*
X85708334Y-82007021D01*
X85705500Y-81980663D01*
X85705500Y-81214335D01*
X85725185Y-81147296D01*
X85741814Y-81126659D01*
X91002127Y-75866345D01*
X91007287Y-75861733D01*
X91037666Y-75837508D01*
X91082645Y-75786023D01*
X91085462Y-75783010D01*
X91093945Y-75774529D01*
X91120951Y-75742180D01*
X91185765Y-75667996D01*
X91188004Y-75664248D01*
X91199266Y-75648374D01*
X91202069Y-75645018D01*
X91250691Y-75559326D01*
X91301215Y-75474764D01*
X91302744Y-75470687D01*
X91311006Y-75453028D01*
X91313154Y-75449244D01*
X91345695Y-75356244D01*
X91380307Y-75264024D01*
X91381085Y-75259735D01*
X91386057Y-75240896D01*
X91387498Y-75236782D01*
X91402912Y-75139460D01*
X91407308Y-75115231D01*
X91420500Y-75042550D01*
X91420500Y-75038175D01*
X91422027Y-75018777D01*
X91422710Y-75014464D01*
X91422711Y-75014459D01*
X91420500Y-74915952D01*
X91420500Y-72380001D01*
X92664532Y-72380001D01*
X92684364Y-72606686D01*
X92684366Y-72606697D01*
X92743258Y-72826488D01*
X92743261Y-72826497D01*
X92839431Y-73032732D01*
X92839432Y-73032734D01*
X92969954Y-73219141D01*
X93130858Y-73380045D01*
X93177693Y-73412839D01*
X93317266Y-73510568D01*
X93523504Y-73606739D01*
X93743308Y-73665635D01*
X93905230Y-73679801D01*
X93969998Y-73685468D01*
X93970000Y-73685468D01*
X93970002Y-73685468D01*
X94026672Y-73680509D01*
X94196692Y-73665635D01*
X94416496Y-73606739D01*
X94622734Y-73510568D01*
X94809139Y-73380047D01*
X94970047Y-73219139D01*
X95100568Y-73032734D01*
X95196739Y-72826496D01*
X95255635Y-72606692D01*
X95275468Y-72380000D01*
X95255635Y-72153308D01*
X95199420Y-71943511D01*
X95196741Y-71933511D01*
X95196738Y-71933502D01*
X95100568Y-71727266D01*
X94970047Y-71540861D01*
X94970045Y-71540858D01*
X94809141Y-71379954D01*
X94622734Y-71249432D01*
X94622732Y-71249431D01*
X94416497Y-71153261D01*
X94416488Y-71153258D01*
X94196697Y-71094366D01*
X94196693Y-71094365D01*
X94196692Y-71094365D01*
X94196691Y-71094364D01*
X94196686Y-71094364D01*
X93970002Y-71074532D01*
X93969998Y-71074532D01*
X93743313Y-71094364D01*
X93743302Y-71094366D01*
X93523511Y-71153258D01*
X93523502Y-71153261D01*
X93317267Y-71249431D01*
X93317265Y-71249432D01*
X93130858Y-71379954D01*
X92969954Y-71540858D01*
X92839432Y-71727265D01*
X92839431Y-71727267D01*
X92743261Y-71933502D01*
X92743258Y-71933511D01*
X92684366Y-72153302D01*
X92684364Y-72153313D01*
X92664532Y-72379998D01*
X92664532Y-72380001D01*
X91420500Y-72380001D01*
X91420500Y-68580001D01*
X125734532Y-68580001D01*
X125754364Y-68806686D01*
X125754366Y-68806697D01*
X125813258Y-69026488D01*
X125813261Y-69026497D01*
X125909431Y-69232732D01*
X125909432Y-69232734D01*
X126039954Y-69419141D01*
X126200858Y-69580045D01*
X126200861Y-69580047D01*
X126387266Y-69710568D01*
X126593504Y-69806739D01*
X126813308Y-69865635D01*
X126975230Y-69879801D01*
X127039998Y-69885468D01*
X127040000Y-69885468D01*
X127040002Y-69885468D01*
X127096673Y-69880509D01*
X127266692Y-69865635D01*
X127486496Y-69806739D01*
X127692734Y-69710568D01*
X127879139Y-69580047D01*
X128040047Y-69419139D01*
X128170568Y-69232734D01*
X128266739Y-69026496D01*
X128325635Y-68806692D01*
X128345468Y-68580001D01*
X130734532Y-68580001D01*
X130754364Y-68806686D01*
X130754366Y-68806697D01*
X130813258Y-69026488D01*
X130813261Y-69026497D01*
X130909431Y-69232732D01*
X130909432Y-69232734D01*
X131039954Y-69419141D01*
X131200858Y-69580045D01*
X131200861Y-69580047D01*
X131387266Y-69710568D01*
X131593504Y-69806739D01*
X131813308Y-69865635D01*
X131975230Y-69879801D01*
X132039998Y-69885468D01*
X132040000Y-69885468D01*
X132040002Y-69885468D01*
X132096672Y-69880509D01*
X132266692Y-69865635D01*
X132486496Y-69806739D01*
X132692734Y-69710568D01*
X132879139Y-69580047D01*
X133040047Y-69419139D01*
X133170568Y-69232734D01*
X133266739Y-69026496D01*
X133325635Y-68806692D01*
X133345468Y-68580000D01*
X133325635Y-68353308D01*
X133266739Y-68133504D01*
X133170568Y-67927266D01*
X133040047Y-67740861D01*
X133040045Y-67740858D01*
X132879141Y-67579954D01*
X132692734Y-67449432D01*
X132692732Y-67449431D01*
X132486497Y-67353261D01*
X132486488Y-67353258D01*
X132266697Y-67294366D01*
X132266693Y-67294365D01*
X132266692Y-67294365D01*
X132266691Y-67294364D01*
X132266686Y-67294364D01*
X132040002Y-67274532D01*
X132039998Y-67274532D01*
X131813313Y-67294364D01*
X131813302Y-67294366D01*
X131593511Y-67353258D01*
X131593502Y-67353261D01*
X131387267Y-67449431D01*
X131387265Y-67449432D01*
X131200858Y-67579954D01*
X131039954Y-67740858D01*
X130909432Y-67927265D01*
X130909431Y-67927267D01*
X130813261Y-68133502D01*
X130813258Y-68133511D01*
X130754366Y-68353302D01*
X130754364Y-68353313D01*
X130734532Y-68579998D01*
X130734532Y-68580001D01*
X128345468Y-68580001D01*
X128345468Y-68580000D01*
X128325635Y-68353308D01*
X128266739Y-68133504D01*
X128170568Y-67927266D01*
X128040047Y-67740861D01*
X128040045Y-67740858D01*
X127879141Y-67579954D01*
X127692734Y-67449432D01*
X127692732Y-67449431D01*
X127486497Y-67353261D01*
X127486488Y-67353258D01*
X127266697Y-67294366D01*
X127266693Y-67294365D01*
X127266692Y-67294365D01*
X127266691Y-67294364D01*
X127266686Y-67294364D01*
X127040002Y-67274532D01*
X127039998Y-67274532D01*
X126813313Y-67294364D01*
X126813302Y-67294366D01*
X126593511Y-67353258D01*
X126593502Y-67353261D01*
X126387267Y-67449431D01*
X126387265Y-67449432D01*
X126200858Y-67579954D01*
X126039954Y-67740858D01*
X125909432Y-67927265D01*
X125909431Y-67927267D01*
X125813261Y-68133502D01*
X125813258Y-68133511D01*
X125754366Y-68353302D01*
X125754364Y-68353313D01*
X125734532Y-68579998D01*
X125734532Y-68580001D01*
X91420500Y-68580001D01*
X91420500Y-67866437D01*
X91440185Y-67799399D01*
X91445234Y-67792126D01*
X91463796Y-67767331D01*
X91514091Y-67632483D01*
X91520500Y-67572873D01*
X91520499Y-66163999D01*
X91540184Y-66096961D01*
X91592987Y-66051206D01*
X91644499Y-66040000D01*
X231016000Y-66040000D01*
X231083039Y-66059685D01*
X231128794Y-66112489D01*
X231140000Y-66164000D01*
X231140000Y-98935050D01*
X231120315Y-99002089D01*
X231067511Y-99047844D01*
X231015053Y-99059046D01*
X64893053Y-97790939D01*
X64826166Y-97770744D01*
X64780816Y-97717592D01*
X64770000Y-97666943D01*
X64770000Y-93980001D01*
X67274532Y-93980001D01*
X67294364Y-94206686D01*
X67294366Y-94206697D01*
X67353258Y-94426488D01*
X67353261Y-94426497D01*
X67449431Y-94632732D01*
X67449432Y-94632734D01*
X67579954Y-94819141D01*
X67740858Y-94980045D01*
X67740861Y-94980047D01*
X67927266Y-95110568D01*
X68133504Y-95206739D01*
X68353308Y-95265635D01*
X68515230Y-95279801D01*
X68579998Y-95285468D01*
X68580000Y-95285468D01*
X68580002Y-95285468D01*
X68636673Y-95280509D01*
X68806692Y-95265635D01*
X69026496Y-95206739D01*
X69232734Y-95110568D01*
X69419139Y-94980047D01*
X69580047Y-94819139D01*
X69710568Y-94632734D01*
X69806739Y-94426496D01*
X69865635Y-94206692D01*
X69885468Y-93980001D01*
X77434532Y-93980001D01*
X77454364Y-94206686D01*
X77454366Y-94206697D01*
X77513258Y-94426488D01*
X77513261Y-94426497D01*
X77609431Y-94632732D01*
X77609432Y-94632734D01*
X77739954Y-94819141D01*
X77900858Y-94980045D01*
X77900861Y-94980047D01*
X78087266Y-95110568D01*
X78293504Y-95206739D01*
X78513308Y-95265635D01*
X78675230Y-95279801D01*
X78739998Y-95285468D01*
X78740000Y-95285468D01*
X78740002Y-95285468D01*
X78796673Y-95280509D01*
X78966692Y-95265635D01*
X79186496Y-95206739D01*
X79392734Y-95110568D01*
X79579139Y-94980047D01*
X79740047Y-94819139D01*
X79870568Y-94632734D01*
X79897618Y-94574724D01*
X79943790Y-94522285D01*
X80010983Y-94503133D01*
X80077865Y-94523348D01*
X80122382Y-94574725D01*
X80149429Y-94632728D01*
X80149432Y-94632734D01*
X80279954Y-94819141D01*
X80440858Y-94980045D01*
X80440861Y-94980047D01*
X80627266Y-95110568D01*
X80833504Y-95206739D01*
X81053308Y-95265635D01*
X81215230Y-95279801D01*
X81279998Y-95285468D01*
X81280000Y-95285468D01*
X81280002Y-95285468D01*
X81336672Y-95280509D01*
X81506692Y-95265635D01*
X81726496Y-95206739D01*
X81932734Y-95110568D01*
X82119139Y-94980047D01*
X82280047Y-94819139D01*
X82410568Y-94632734D01*
X82506739Y-94426496D01*
X82565635Y-94206692D01*
X82585468Y-93980001D01*
X90134532Y-93980001D01*
X90154364Y-94206686D01*
X90154366Y-94206697D01*
X90213258Y-94426488D01*
X90213261Y-94426497D01*
X90309431Y-94632732D01*
X90309432Y-94632734D01*
X90439954Y-94819141D01*
X90600858Y-94980045D01*
X90600861Y-94980047D01*
X90787266Y-95110568D01*
X90993504Y-95206739D01*
X91213308Y-95265635D01*
X91375230Y-95279801D01*
X91439998Y-95285468D01*
X91440000Y-95285468D01*
X91440002Y-95285468D01*
X91496673Y-95280509D01*
X91666692Y-95265635D01*
X91886496Y-95206739D01*
X92092734Y-95110568D01*
X92279139Y-94980047D01*
X92440047Y-94819139D01*
X92570568Y-94632734D01*
X92597618Y-94574724D01*
X92643790Y-94522285D01*
X92710983Y-94503133D01*
X92777865Y-94523348D01*
X92822382Y-94574725D01*
X92849429Y-94632728D01*
X92849432Y-94632734D01*
X92979954Y-94819141D01*
X93140858Y-94980045D01*
X93140861Y-94980047D01*
X93327266Y-95110568D01*
X93533504Y-95206739D01*
X93753308Y-95265635D01*
X93915230Y-95279801D01*
X93979998Y-95285468D01*
X93980000Y-95285468D01*
X93980002Y-95285468D01*
X94036673Y-95280509D01*
X94206692Y-95265635D01*
X94426496Y-95206739D01*
X94632734Y-95110568D01*
X94819139Y-94980047D01*
X94980047Y-94819139D01*
X95110568Y-94632734D01*
X95206739Y-94426496D01*
X95265635Y-94206692D01*
X95285468Y-93980001D01*
X102834532Y-93980001D01*
X102854364Y-94206686D01*
X102854366Y-94206697D01*
X102913258Y-94426488D01*
X102913261Y-94426497D01*
X103009431Y-94632732D01*
X103009432Y-94632734D01*
X103139954Y-94819141D01*
X103300858Y-94980045D01*
X103300861Y-94980047D01*
X103487266Y-95110568D01*
X103693504Y-95206739D01*
X103913308Y-95265635D01*
X104075230Y-95279801D01*
X104139998Y-95285468D01*
X104140000Y-95285468D01*
X104140002Y-95285468D01*
X104196672Y-95280509D01*
X104366692Y-95265635D01*
X104586496Y-95206739D01*
X104792734Y-95110568D01*
X104979139Y-94980047D01*
X105140047Y-94819139D01*
X105270568Y-94632734D01*
X105366739Y-94426496D01*
X105425635Y-94206692D01*
X105444593Y-93990001D01*
X193014532Y-93990001D01*
X193034364Y-94216686D01*
X193034366Y-94216697D01*
X193093258Y-94436488D01*
X193093261Y-94436497D01*
X193189431Y-94642732D01*
X193189432Y-94642734D01*
X193319954Y-94829141D01*
X193480858Y-94990045D01*
X193480861Y-94990047D01*
X193667266Y-95120568D01*
X193873504Y-95216739D01*
X194093308Y-95275635D01*
X194255230Y-95289801D01*
X194319998Y-95295468D01*
X194320000Y-95295468D01*
X194320002Y-95295468D01*
X194376673Y-95290509D01*
X194546692Y-95275635D01*
X194766496Y-95216739D01*
X194972734Y-95120568D01*
X195159139Y-94990047D01*
X195320047Y-94829139D01*
X195450568Y-94642734D01*
X195546739Y-94436496D01*
X195605635Y-94216692D01*
X195625468Y-93990000D01*
X195621094Y-93940001D01*
X200624532Y-93940001D01*
X200644364Y-94166686D01*
X200644366Y-94166697D01*
X200703258Y-94386488D01*
X200703261Y-94386497D01*
X200799431Y-94592732D01*
X200799432Y-94592734D01*
X200929954Y-94779141D01*
X201090858Y-94940045D01*
X201090861Y-94940047D01*
X201277266Y-95070568D01*
X201483504Y-95166739D01*
X201703308Y-95225635D01*
X201865230Y-95239801D01*
X201929998Y-95245468D01*
X201930000Y-95245468D01*
X201930002Y-95245468D01*
X201986673Y-95240509D01*
X202156692Y-95225635D01*
X202376496Y-95166739D01*
X202582734Y-95070568D01*
X202769139Y-94940047D01*
X202930047Y-94779139D01*
X203060568Y-94592734D01*
X203156739Y-94386496D01*
X203215635Y-94166692D01*
X203228469Y-94020001D01*
X204354532Y-94020001D01*
X204374364Y-94246686D01*
X204374366Y-94246697D01*
X204433258Y-94466488D01*
X204433261Y-94466497D01*
X204529431Y-94672732D01*
X204529432Y-94672734D01*
X204659954Y-94859141D01*
X204820858Y-95020045D01*
X204820861Y-95020047D01*
X205007266Y-95150568D01*
X205213504Y-95246739D01*
X205433308Y-95305635D01*
X205595230Y-95319801D01*
X205659998Y-95325468D01*
X205660000Y-95325468D01*
X205660002Y-95325468D01*
X205716673Y-95320509D01*
X205886692Y-95305635D01*
X206106496Y-95246739D01*
X206312734Y-95150568D01*
X206499139Y-95020047D01*
X206660047Y-94859139D01*
X206790568Y-94672734D01*
X206886739Y-94466496D01*
X206945635Y-94246692D01*
X206965468Y-94020000D01*
X206962843Y-93990001D01*
X206945635Y-93793313D01*
X206945635Y-93793308D01*
X206886739Y-93573504D01*
X206790568Y-93367266D01*
X206660047Y-93180861D01*
X206660045Y-93180858D01*
X206499141Y-93019954D01*
X206312734Y-92889432D01*
X206312732Y-92889431D01*
X206106497Y-92793261D01*
X206106488Y-92793258D01*
X205886697Y-92734366D01*
X205886693Y-92734365D01*
X205886692Y-92734365D01*
X205886691Y-92734364D01*
X205886686Y-92734364D01*
X205660002Y-92714532D01*
X205659998Y-92714532D01*
X205433313Y-92734364D01*
X205433302Y-92734366D01*
X205213511Y-92793258D01*
X205213502Y-92793261D01*
X205007267Y-92889431D01*
X205007265Y-92889432D01*
X204820858Y-93019954D01*
X204659954Y-93180858D01*
X204529432Y-93367265D01*
X204529431Y-93367267D01*
X204433261Y-93573502D01*
X204433258Y-93573511D01*
X204374366Y-93793302D01*
X204374364Y-93793313D01*
X204354532Y-94019998D01*
X204354532Y-94020001D01*
X203228469Y-94020001D01*
X203235468Y-93940000D01*
X203215635Y-93713308D01*
X203156739Y-93493504D01*
X203060568Y-93287266D01*
X202930047Y-93100861D01*
X202930045Y-93100858D01*
X202769141Y-92939954D01*
X202582734Y-92809432D01*
X202582732Y-92809431D01*
X202376497Y-92713261D01*
X202376488Y-92713258D01*
X202156697Y-92654366D01*
X202156693Y-92654365D01*
X202156692Y-92654365D01*
X202156691Y-92654364D01*
X202156686Y-92654364D01*
X201930002Y-92634532D01*
X201929998Y-92634532D01*
X201703313Y-92654364D01*
X201703302Y-92654366D01*
X201483511Y-92713258D01*
X201483502Y-92713261D01*
X201277267Y-92809431D01*
X201277265Y-92809432D01*
X201090858Y-92939954D01*
X200929954Y-93100858D01*
X200799432Y-93287265D01*
X200799431Y-93287267D01*
X200703261Y-93493502D01*
X200703258Y-93493511D01*
X200644366Y-93713302D01*
X200644364Y-93713313D01*
X200624532Y-93939998D01*
X200624532Y-93940001D01*
X195621094Y-93940001D01*
X195605635Y-93763308D01*
X195546739Y-93543504D01*
X195450568Y-93337266D01*
X195320047Y-93150861D01*
X195320045Y-93150858D01*
X195159141Y-92989954D01*
X194972734Y-92859432D01*
X194972728Y-92859429D01*
X194914725Y-92832382D01*
X194862285Y-92786210D01*
X194843133Y-92719017D01*
X194863348Y-92652135D01*
X194914725Y-92607618D01*
X194972734Y-92580568D01*
X195159139Y-92450047D01*
X195320047Y-92289139D01*
X195450568Y-92102734D01*
X195546739Y-91896496D01*
X195605635Y-91676692D01*
X195625468Y-91450000D01*
X195605635Y-91223308D01*
X195604178Y-91217870D01*
X215979500Y-91217870D01*
X215979501Y-91217876D01*
X215985908Y-91277483D01*
X216036202Y-91412328D01*
X216036206Y-91412335D01*
X216122452Y-91527544D01*
X216122455Y-91527547D01*
X216237664Y-91613793D01*
X216237671Y-91613797D01*
X216372517Y-91664091D01*
X216372516Y-91664091D01*
X216379444Y-91664835D01*
X216432127Y-91670500D01*
X218527872Y-91670499D01*
X218587483Y-91664091D01*
X218722331Y-91613796D01*
X218837546Y-91527546D01*
X218923796Y-91412331D01*
X218974091Y-91277483D01*
X218980500Y-91217873D01*
X218980500Y-90170005D01*
X219474357Y-90170005D01*
X219494890Y-90417812D01*
X219494892Y-90417824D01*
X219555936Y-90658881D01*
X219655826Y-90886606D01*
X219791833Y-91094782D01*
X219791836Y-91094785D01*
X219960256Y-91277738D01*
X220156491Y-91430474D01*
X220375190Y-91548828D01*
X220610386Y-91629571D01*
X220855665Y-91670500D01*
X221104335Y-91670500D01*
X221349614Y-91629571D01*
X221584810Y-91548828D01*
X221803509Y-91430474D01*
X221999744Y-91277738D01*
X222168164Y-91094785D01*
X222185748Y-91067870D01*
X227249500Y-91067870D01*
X227249501Y-91067876D01*
X227255908Y-91127483D01*
X227306202Y-91262328D01*
X227306206Y-91262335D01*
X227392452Y-91377544D01*
X227392455Y-91377547D01*
X227507664Y-91463793D01*
X227507671Y-91463797D01*
X227642517Y-91514091D01*
X227642516Y-91514091D01*
X227649444Y-91514835D01*
X227702127Y-91520500D01*
X229497872Y-91520499D01*
X229557483Y-91514091D01*
X229692331Y-91463796D01*
X229807546Y-91377546D01*
X229893796Y-91262331D01*
X229944091Y-91127483D01*
X229950500Y-91067873D01*
X229950499Y-89272128D01*
X229944091Y-89212517D01*
X229927001Y-89166697D01*
X229893797Y-89077671D01*
X229893793Y-89077664D01*
X229807547Y-88962455D01*
X229807544Y-88962452D01*
X229692335Y-88876206D01*
X229692328Y-88876202D01*
X229557482Y-88825908D01*
X229557483Y-88825908D01*
X229497883Y-88819501D01*
X229497881Y-88819500D01*
X229497873Y-88819500D01*
X229497864Y-88819500D01*
X227702129Y-88819500D01*
X227702123Y-88819501D01*
X227642516Y-88825908D01*
X227507671Y-88876202D01*
X227507664Y-88876206D01*
X227392455Y-88962452D01*
X227392452Y-88962455D01*
X227306206Y-89077664D01*
X227306202Y-89077671D01*
X227255908Y-89212517D01*
X227252393Y-89245215D01*
X227249501Y-89272123D01*
X227249500Y-89272135D01*
X227249500Y-91067870D01*
X222185748Y-91067870D01*
X222304173Y-90886607D01*
X222404063Y-90658881D01*
X222465108Y-90417821D01*
X222485643Y-90170000D01*
X222466589Y-89940047D01*
X222465109Y-89922187D01*
X222465107Y-89922175D01*
X222404063Y-89681118D01*
X222304173Y-89453393D01*
X222168166Y-89245217D01*
X222095883Y-89166697D01*
X221999744Y-89062262D01*
X221803509Y-88909526D01*
X221803507Y-88909525D01*
X221803506Y-88909524D01*
X221584811Y-88791172D01*
X221584802Y-88791169D01*
X221349616Y-88710429D01*
X221104335Y-88669500D01*
X220855665Y-88669500D01*
X220610383Y-88710429D01*
X220375197Y-88791169D01*
X220375188Y-88791172D01*
X220156493Y-88909524D01*
X219960257Y-89062261D01*
X219791833Y-89245217D01*
X219655826Y-89453393D01*
X219555936Y-89681118D01*
X219494892Y-89922175D01*
X219494890Y-89922187D01*
X219474357Y-90169994D01*
X219474357Y-90170005D01*
X218980500Y-90170005D01*
X218980499Y-89122128D01*
X218974091Y-89062517D01*
X218936770Y-88962455D01*
X218923797Y-88927671D01*
X218923793Y-88927664D01*
X218837547Y-88812455D01*
X218837544Y-88812452D01*
X218722335Y-88726206D01*
X218722328Y-88726202D01*
X218587482Y-88675908D01*
X218587483Y-88675908D01*
X218527883Y-88669501D01*
X218527881Y-88669500D01*
X218527873Y-88669500D01*
X218527864Y-88669500D01*
X216432129Y-88669500D01*
X216432123Y-88669501D01*
X216372516Y-88675908D01*
X216237671Y-88726202D01*
X216237664Y-88726206D01*
X216122455Y-88812452D01*
X216122452Y-88812455D01*
X216036206Y-88927664D01*
X216036202Y-88927671D01*
X215985908Y-89062517D01*
X215979501Y-89122116D01*
X215979501Y-89122123D01*
X215979500Y-89122135D01*
X215979500Y-91217870D01*
X195604178Y-91217870D01*
X195546739Y-91003504D01*
X195450568Y-90797266D01*
X195320047Y-90610861D01*
X195320045Y-90610858D01*
X195159141Y-90449954D01*
X194972734Y-90319432D01*
X194972728Y-90319429D01*
X194914725Y-90292382D01*
X194862285Y-90246210D01*
X194843133Y-90179017D01*
X194863348Y-90112135D01*
X194914725Y-90067618D01*
X194972734Y-90040568D01*
X195159139Y-89910047D01*
X195320047Y-89749139D01*
X195450568Y-89562734D01*
X195546739Y-89356496D01*
X195605635Y-89136692D01*
X195622843Y-88940001D01*
X200624532Y-88940001D01*
X200644364Y-89166686D01*
X200644366Y-89166697D01*
X200703258Y-89386488D01*
X200703261Y-89386497D01*
X200799431Y-89592732D01*
X200799432Y-89592734D01*
X200929954Y-89779141D01*
X201090858Y-89940045D01*
X201090861Y-89940047D01*
X201277266Y-90070568D01*
X201483504Y-90166739D01*
X201703308Y-90225635D01*
X201865230Y-90239801D01*
X201929998Y-90245468D01*
X201930000Y-90245468D01*
X201930002Y-90245468D01*
X201986673Y-90240509D01*
X202156692Y-90225635D01*
X202376496Y-90166739D01*
X202582734Y-90070568D01*
X202769139Y-89940047D01*
X202930047Y-89779139D01*
X203060568Y-89592734D01*
X203156739Y-89386496D01*
X203215635Y-89166692D01*
X203235468Y-88940000D01*
X203232843Y-88910001D01*
X203228184Y-88856739D01*
X203215635Y-88713308D01*
X203156739Y-88493504D01*
X203060568Y-88287266D01*
X202930047Y-88100861D01*
X202930045Y-88100858D01*
X202769141Y-87939954D01*
X202582734Y-87809432D01*
X202582732Y-87809431D01*
X202376497Y-87713261D01*
X202376488Y-87713258D01*
X202156697Y-87654366D01*
X202156693Y-87654365D01*
X202156692Y-87654365D01*
X202156691Y-87654364D01*
X202156686Y-87654364D01*
X201930002Y-87634532D01*
X201929998Y-87634532D01*
X201703313Y-87654364D01*
X201703302Y-87654366D01*
X201483511Y-87713258D01*
X201483502Y-87713261D01*
X201277267Y-87809431D01*
X201277265Y-87809432D01*
X201090858Y-87939954D01*
X200929954Y-88100858D01*
X200799432Y-88287265D01*
X200799431Y-88287267D01*
X200703261Y-88493502D01*
X200703258Y-88493511D01*
X200644366Y-88713302D01*
X200644364Y-88713313D01*
X200624532Y-88939998D01*
X200624532Y-88940001D01*
X195622843Y-88940001D01*
X195625468Y-88910000D01*
X195625426Y-88909524D01*
X195615072Y-88791172D01*
X195605635Y-88683308D01*
X195554777Y-88493502D01*
X195546741Y-88463511D01*
X195546738Y-88463502D01*
X195450568Y-88257266D01*
X195320047Y-88070861D01*
X195320045Y-88070858D01*
X195159141Y-87909954D01*
X194972734Y-87779432D01*
X194972728Y-87779429D01*
X194914725Y-87752382D01*
X194862285Y-87706210D01*
X194843133Y-87639017D01*
X194863348Y-87572135D01*
X194914725Y-87527618D01*
X194972734Y-87500568D01*
X195159139Y-87370047D01*
X195320047Y-87209139D01*
X195450568Y-87022734D01*
X195546739Y-86816496D01*
X195605635Y-86596692D01*
X195625468Y-86370000D01*
X195623080Y-86342710D01*
X195614761Y-86247618D01*
X195605635Y-86143308D01*
X195552093Y-85943484D01*
X195546741Y-85923511D01*
X195546738Y-85923502D01*
X195506869Y-85838003D01*
X195450568Y-85717266D01*
X195320047Y-85530861D01*
X195320045Y-85530858D01*
X195159141Y-85369954D01*
X194972734Y-85239432D01*
X194972732Y-85239431D01*
X194766497Y-85143261D01*
X194766488Y-85143258D01*
X194546697Y-85084366D01*
X194546693Y-85084365D01*
X194546692Y-85084365D01*
X194546691Y-85084364D01*
X194546686Y-85084364D01*
X194320002Y-85064532D01*
X194319998Y-85064532D01*
X194093313Y-85084364D01*
X194093302Y-85084366D01*
X193873511Y-85143258D01*
X193873502Y-85143261D01*
X193667267Y-85239431D01*
X193667265Y-85239432D01*
X193480858Y-85369954D01*
X193319954Y-85530858D01*
X193189432Y-85717265D01*
X193189431Y-85717267D01*
X193093261Y-85923502D01*
X193093258Y-85923511D01*
X193034366Y-86143302D01*
X193034364Y-86143313D01*
X193014532Y-86369998D01*
X193014532Y-86370001D01*
X193034364Y-86596686D01*
X193034366Y-86596697D01*
X193093258Y-86816488D01*
X193093261Y-86816497D01*
X193189431Y-87022732D01*
X193189432Y-87022734D01*
X193319954Y-87209141D01*
X193480858Y-87370045D01*
X193480861Y-87370047D01*
X193667266Y-87500568D01*
X193725275Y-87527618D01*
X193777714Y-87573791D01*
X193796866Y-87640984D01*
X193776650Y-87707865D01*
X193725275Y-87752382D01*
X193667267Y-87779431D01*
X193667265Y-87779432D01*
X193480858Y-87909954D01*
X193319954Y-88070858D01*
X193189432Y-88257265D01*
X193189431Y-88257267D01*
X193093261Y-88463502D01*
X193093258Y-88463511D01*
X193034366Y-88683302D01*
X193034364Y-88683313D01*
X193014532Y-88909998D01*
X193014532Y-88910001D01*
X193034364Y-89136686D01*
X193034366Y-89136697D01*
X193093258Y-89356488D01*
X193093261Y-89356497D01*
X193189431Y-89562732D01*
X193189432Y-89562734D01*
X193319954Y-89749141D01*
X193480858Y-89910045D01*
X193480861Y-89910047D01*
X193667266Y-90040568D01*
X193725275Y-90067618D01*
X193777714Y-90113791D01*
X193796866Y-90180984D01*
X193776650Y-90247865D01*
X193725275Y-90292382D01*
X193667267Y-90319431D01*
X193667265Y-90319432D01*
X193480858Y-90449954D01*
X193319954Y-90610858D01*
X193189432Y-90797265D01*
X193189431Y-90797267D01*
X193093261Y-91003502D01*
X193093258Y-91003511D01*
X193034366Y-91223302D01*
X193034364Y-91223313D01*
X193014532Y-91449998D01*
X193014532Y-91450001D01*
X193034364Y-91676686D01*
X193034366Y-91676697D01*
X193093258Y-91896488D01*
X193093261Y-91896497D01*
X193189431Y-92102732D01*
X193189432Y-92102734D01*
X193319954Y-92289141D01*
X193480858Y-92450045D01*
X193480861Y-92450047D01*
X193667266Y-92580568D01*
X193725275Y-92607618D01*
X193777714Y-92653791D01*
X193796866Y-92720984D01*
X193776650Y-92787865D01*
X193725275Y-92832382D01*
X193667267Y-92859431D01*
X193667265Y-92859432D01*
X193480858Y-92989954D01*
X193319954Y-93150858D01*
X193189432Y-93337265D01*
X193189431Y-93337267D01*
X193093261Y-93543502D01*
X193093258Y-93543511D01*
X193034366Y-93763302D01*
X193034364Y-93763313D01*
X193014532Y-93989998D01*
X193014532Y-93990001D01*
X105444593Y-93990001D01*
X105445468Y-93980000D01*
X105441968Y-93940000D01*
X105429135Y-93793313D01*
X105425635Y-93753308D01*
X105369420Y-93543511D01*
X105366741Y-93533511D01*
X105366738Y-93533502D01*
X105348090Y-93493511D01*
X105270568Y-93327266D01*
X105140047Y-93140861D01*
X105140045Y-93140858D01*
X104979141Y-92979954D01*
X104792734Y-92849432D01*
X104792732Y-92849431D01*
X104586497Y-92753261D01*
X104586488Y-92753258D01*
X104366697Y-92694366D01*
X104366693Y-92694365D01*
X104366692Y-92694365D01*
X104366691Y-92694364D01*
X104366686Y-92694364D01*
X104140002Y-92674532D01*
X104139998Y-92674532D01*
X103913313Y-92694364D01*
X103913302Y-92694366D01*
X103693511Y-92753258D01*
X103693502Y-92753261D01*
X103487267Y-92849431D01*
X103487265Y-92849432D01*
X103300858Y-92979954D01*
X103139954Y-93140858D01*
X103009432Y-93327265D01*
X103009431Y-93327267D01*
X102913261Y-93533502D01*
X102913258Y-93533511D01*
X102854366Y-93753302D01*
X102854364Y-93753313D01*
X102834532Y-93979998D01*
X102834532Y-93980001D01*
X95285468Y-93980001D01*
X95285468Y-93980000D01*
X95281968Y-93940000D01*
X95269135Y-93793313D01*
X95265635Y-93753308D01*
X95209420Y-93543511D01*
X95206741Y-93533511D01*
X95206738Y-93533502D01*
X95188090Y-93493511D01*
X95110568Y-93327266D01*
X94980047Y-93140861D01*
X94980045Y-93140858D01*
X94819141Y-92979954D01*
X94632734Y-92849432D01*
X94632732Y-92849431D01*
X94426497Y-92753261D01*
X94426488Y-92753258D01*
X94206697Y-92694366D01*
X94206693Y-92694365D01*
X94206692Y-92694365D01*
X94206691Y-92694364D01*
X94206686Y-92694364D01*
X93980002Y-92674532D01*
X93979998Y-92674532D01*
X93753313Y-92694364D01*
X93753302Y-92694366D01*
X93533511Y-92753258D01*
X93533502Y-92753261D01*
X93327267Y-92849431D01*
X93327265Y-92849432D01*
X93140858Y-92979954D01*
X92979954Y-93140858D01*
X92849432Y-93327265D01*
X92849431Y-93327267D01*
X92822382Y-93385275D01*
X92776209Y-93437714D01*
X92709016Y-93456866D01*
X92642135Y-93436650D01*
X92597618Y-93385275D01*
X92589220Y-93367265D01*
X92570568Y-93327266D01*
X92440047Y-93140861D01*
X92440045Y-93140858D01*
X92279141Y-92979954D01*
X92092734Y-92849432D01*
X92092732Y-92849431D01*
X91886497Y-92753261D01*
X91886488Y-92753258D01*
X91666697Y-92694366D01*
X91666693Y-92694365D01*
X91666692Y-92694365D01*
X91666691Y-92694364D01*
X91666686Y-92694364D01*
X91440002Y-92674532D01*
X91439998Y-92674532D01*
X91213313Y-92694364D01*
X91213302Y-92694366D01*
X90993511Y-92753258D01*
X90993502Y-92753261D01*
X90787267Y-92849431D01*
X90787265Y-92849432D01*
X90600858Y-92979954D01*
X90439954Y-93140858D01*
X90309432Y-93327265D01*
X90309431Y-93327267D01*
X90213261Y-93533502D01*
X90213258Y-93533511D01*
X90154366Y-93753302D01*
X90154364Y-93753313D01*
X90134532Y-93979998D01*
X90134532Y-93980001D01*
X82585468Y-93980001D01*
X82585468Y-93980000D01*
X82581968Y-93940000D01*
X82569135Y-93793313D01*
X82565635Y-93753308D01*
X82509420Y-93543511D01*
X82506741Y-93533511D01*
X82506738Y-93533502D01*
X82488090Y-93493511D01*
X82410568Y-93327266D01*
X82280047Y-93140861D01*
X82280045Y-93140858D01*
X82119141Y-92979954D01*
X81932734Y-92849432D01*
X81932732Y-92849431D01*
X81726497Y-92753261D01*
X81726488Y-92753258D01*
X81506697Y-92694366D01*
X81506693Y-92694365D01*
X81506692Y-92694365D01*
X81506691Y-92694364D01*
X81506686Y-92694364D01*
X81280002Y-92674532D01*
X81279998Y-92674532D01*
X81053313Y-92694364D01*
X81053302Y-92694366D01*
X80833511Y-92753258D01*
X80833502Y-92753261D01*
X80627267Y-92849431D01*
X80627265Y-92849432D01*
X80440858Y-92979954D01*
X80279954Y-93140858D01*
X80149432Y-93327265D01*
X80149431Y-93327267D01*
X80122382Y-93385275D01*
X80076209Y-93437714D01*
X80009016Y-93456866D01*
X79942135Y-93436650D01*
X79897618Y-93385275D01*
X79889220Y-93367265D01*
X79870568Y-93327266D01*
X79740047Y-93140861D01*
X79740045Y-93140858D01*
X79579141Y-92979954D01*
X79392734Y-92849432D01*
X79392732Y-92849431D01*
X79186497Y-92753261D01*
X79186488Y-92753258D01*
X78966697Y-92694366D01*
X78966693Y-92694365D01*
X78966692Y-92694365D01*
X78966691Y-92694364D01*
X78966686Y-92694364D01*
X78740002Y-92674532D01*
X78739998Y-92674532D01*
X78513313Y-92694364D01*
X78513302Y-92694366D01*
X78293511Y-92753258D01*
X78293502Y-92753261D01*
X78087267Y-92849431D01*
X78087265Y-92849432D01*
X77900858Y-92979954D01*
X77739954Y-93140858D01*
X77609432Y-93327265D01*
X77609431Y-93327267D01*
X77513261Y-93533502D01*
X77513258Y-93533511D01*
X77454366Y-93753302D01*
X77454364Y-93753313D01*
X77434532Y-93979998D01*
X77434532Y-93980001D01*
X69885468Y-93980001D01*
X69885468Y-93980000D01*
X69881968Y-93940000D01*
X69869135Y-93793313D01*
X69865635Y-93753308D01*
X69809420Y-93543511D01*
X69806741Y-93533511D01*
X69806738Y-93533502D01*
X69788090Y-93493511D01*
X69710568Y-93327266D01*
X69580047Y-93140861D01*
X69580045Y-93140858D01*
X69419141Y-92979954D01*
X69232734Y-92849432D01*
X69232732Y-92849431D01*
X69026497Y-92753261D01*
X69026488Y-92753258D01*
X68806697Y-92694366D01*
X68806693Y-92694365D01*
X68806692Y-92694365D01*
X68806691Y-92694364D01*
X68806686Y-92694364D01*
X68580002Y-92674532D01*
X68579998Y-92674532D01*
X68353313Y-92694364D01*
X68353302Y-92694366D01*
X68133511Y-92753258D01*
X68133502Y-92753261D01*
X67927267Y-92849431D01*
X67927265Y-92849432D01*
X67740858Y-92979954D01*
X67579954Y-93140858D01*
X67449432Y-93327265D01*
X67449431Y-93327267D01*
X67353261Y-93533502D01*
X67353258Y-93533511D01*
X67294366Y-93753302D01*
X67294364Y-93753313D01*
X67274532Y-93979998D01*
X67274532Y-93980001D01*
X64770000Y-93980001D01*
X64770000Y-91450001D01*
X185394532Y-91450001D01*
X185414364Y-91676686D01*
X185414366Y-91676697D01*
X185473258Y-91896488D01*
X185473261Y-91896497D01*
X185569431Y-92102732D01*
X185569432Y-92102734D01*
X185699954Y-92289141D01*
X185860858Y-92450045D01*
X185860861Y-92450047D01*
X186047266Y-92580568D01*
X186253504Y-92676739D01*
X186473308Y-92735635D01*
X186635230Y-92749801D01*
X186699998Y-92755468D01*
X186700000Y-92755468D01*
X186700002Y-92755468D01*
X186756672Y-92750509D01*
X186926692Y-92735635D01*
X187146496Y-92676739D01*
X187352734Y-92580568D01*
X187539139Y-92450047D01*
X187700047Y-92289139D01*
X187830568Y-92102734D01*
X187926739Y-91896496D01*
X187985635Y-91676692D01*
X188005468Y-91450000D01*
X187985635Y-91223308D01*
X187926739Y-91003504D01*
X187830568Y-90797266D01*
X187700047Y-90610861D01*
X187700045Y-90610858D01*
X187539141Y-90449954D01*
X187352734Y-90319432D01*
X187352732Y-90319431D01*
X187146497Y-90223261D01*
X187146488Y-90223258D01*
X186926697Y-90164366D01*
X186926693Y-90164365D01*
X186926692Y-90164365D01*
X186926691Y-90164364D01*
X186926686Y-90164364D01*
X186700002Y-90144532D01*
X186699998Y-90144532D01*
X186473313Y-90164364D01*
X186473302Y-90164366D01*
X186253511Y-90223258D01*
X186253502Y-90223261D01*
X186047267Y-90319431D01*
X186047265Y-90319432D01*
X185860858Y-90449954D01*
X185699954Y-90610858D01*
X185569432Y-90797265D01*
X185569431Y-90797267D01*
X185473261Y-91003502D01*
X185473258Y-91003511D01*
X185414366Y-91223302D01*
X185414364Y-91223313D01*
X185394532Y-91449998D01*
X185394532Y-91450001D01*
X64770000Y-91450001D01*
X64770000Y-86350000D01*
X68714700Y-86350000D01*
X68733859Y-86556772D01*
X68790688Y-86756502D01*
X68790693Y-86756515D01*
X68883252Y-86942397D01*
X69008390Y-87108107D01*
X69008392Y-87108110D01*
X69161850Y-87248005D01*
X69161852Y-87248006D01*
X69161855Y-87248009D01*
X69261609Y-87309774D01*
X69338407Y-87357325D01*
X69338409Y-87357326D01*
X69338411Y-87357327D01*
X69532047Y-87432342D01*
X69736170Y-87470500D01*
X69736172Y-87470500D01*
X69943828Y-87470500D01*
X69943830Y-87470500D01*
X70147953Y-87432342D01*
X70341589Y-87357327D01*
X70518145Y-87248009D01*
X70671607Y-87108110D01*
X70796749Y-86942394D01*
X70889311Y-86756505D01*
X70946140Y-86556773D01*
X70965300Y-86350001D01*
X73694532Y-86350001D01*
X73714364Y-86576686D01*
X73714366Y-86576697D01*
X73773258Y-86796488D01*
X73773261Y-86796497D01*
X73869431Y-87002732D01*
X73869432Y-87002734D01*
X73999954Y-87189141D01*
X74160858Y-87350045D01*
X74160861Y-87350047D01*
X74347266Y-87480568D01*
X74553504Y-87576739D01*
X74773308Y-87635635D01*
X74935230Y-87649801D01*
X74999998Y-87655468D01*
X75000000Y-87655468D01*
X75000002Y-87655468D01*
X75056672Y-87650509D01*
X75226692Y-87635635D01*
X75446496Y-87576739D01*
X75652734Y-87480568D01*
X75839139Y-87350047D01*
X76000047Y-87189139D01*
X76130568Y-87002734D01*
X76226739Y-86796496D01*
X76285635Y-86576692D01*
X76305468Y-86350001D01*
X78694532Y-86350001D01*
X78714364Y-86576686D01*
X78714366Y-86576697D01*
X78773258Y-86796488D01*
X78773261Y-86796497D01*
X78869431Y-87002732D01*
X78869432Y-87002734D01*
X78999954Y-87189141D01*
X79160858Y-87350045D01*
X79160861Y-87350047D01*
X79347266Y-87480568D01*
X79553504Y-87576739D01*
X79773308Y-87635635D01*
X79935230Y-87649801D01*
X79999998Y-87655468D01*
X80000000Y-87655468D01*
X80000002Y-87655468D01*
X80056673Y-87650509D01*
X80226692Y-87635635D01*
X80446496Y-87576739D01*
X80652734Y-87480568D01*
X80839139Y-87350047D01*
X81000047Y-87189139D01*
X81130568Y-87002734D01*
X81226739Y-86796496D01*
X81285635Y-86576692D01*
X81305468Y-86350000D01*
X81304871Y-86343181D01*
X81294635Y-86226180D01*
X81285635Y-86123308D01*
X81226739Y-85903504D01*
X81130568Y-85697266D01*
X81014049Y-85530858D01*
X81000045Y-85510858D01*
X80839141Y-85349954D01*
X80652734Y-85219432D01*
X80652732Y-85219431D01*
X80446497Y-85123261D01*
X80446488Y-85123258D01*
X80226697Y-85064366D01*
X80226693Y-85064365D01*
X80226692Y-85064365D01*
X80226691Y-85064364D01*
X80226686Y-85064364D01*
X80000002Y-85044532D01*
X79999998Y-85044532D01*
X79773313Y-85064364D01*
X79773302Y-85064366D01*
X79553511Y-85123258D01*
X79553502Y-85123261D01*
X79347267Y-85219431D01*
X79347265Y-85219432D01*
X79160858Y-85349954D01*
X78999954Y-85510858D01*
X78869432Y-85697265D01*
X78869431Y-85697267D01*
X78773261Y-85903502D01*
X78773258Y-85903511D01*
X78714366Y-86123302D01*
X78714364Y-86123313D01*
X78694532Y-86349998D01*
X78694532Y-86350001D01*
X76305468Y-86350001D01*
X76305468Y-86350000D01*
X76304871Y-86343181D01*
X76294635Y-86226180D01*
X76285635Y-86123308D01*
X76226739Y-85903504D01*
X76130568Y-85697266D01*
X76014049Y-85530858D01*
X76000045Y-85510858D01*
X75839141Y-85349954D01*
X75652734Y-85219432D01*
X75652732Y-85219431D01*
X75446497Y-85123261D01*
X75446488Y-85123258D01*
X75226697Y-85064366D01*
X75226693Y-85064365D01*
X75226692Y-85064365D01*
X75226691Y-85064364D01*
X75226686Y-85064364D01*
X75000002Y-85044532D01*
X74999998Y-85044532D01*
X74773313Y-85064364D01*
X74773302Y-85064366D01*
X74553511Y-85123258D01*
X74553502Y-85123261D01*
X74347267Y-85219431D01*
X74347265Y-85219432D01*
X74160858Y-85349954D01*
X73999954Y-85510858D01*
X73869432Y-85697265D01*
X73869431Y-85697267D01*
X73773261Y-85903502D01*
X73773258Y-85903511D01*
X73714366Y-86123302D01*
X73714364Y-86123313D01*
X73694532Y-86349998D01*
X73694532Y-86350001D01*
X70965300Y-86350001D01*
X70965300Y-86350000D01*
X70964624Y-86342710D01*
X70946140Y-86143227D01*
X70940474Y-86123313D01*
X70889311Y-85943495D01*
X70879360Y-85923511D01*
X70796747Y-85757602D01*
X70671609Y-85591892D01*
X70671607Y-85591889D01*
X70518149Y-85451994D01*
X70518143Y-85451990D01*
X70341592Y-85342674D01*
X70341583Y-85342670D01*
X70251389Y-85307729D01*
X70147953Y-85267658D01*
X69943830Y-85229500D01*
X69736170Y-85229500D01*
X69532047Y-85267658D01*
X69338416Y-85342670D01*
X69338407Y-85342674D01*
X69161856Y-85451990D01*
X69161850Y-85451994D01*
X69008392Y-85591889D01*
X69008390Y-85591892D01*
X68883252Y-85757602D01*
X68790693Y-85943484D01*
X68790688Y-85943497D01*
X68733859Y-86143227D01*
X68714700Y-86349999D01*
X68714700Y-86350000D01*
X64770000Y-86350000D01*
X64770000Y-83810000D01*
X68714700Y-83810000D01*
X68733859Y-84016772D01*
X68790688Y-84216502D01*
X68790693Y-84216515D01*
X68883252Y-84402397D01*
X69008390Y-84568107D01*
X69008392Y-84568110D01*
X69161850Y-84708005D01*
X69161852Y-84708006D01*
X69161855Y-84708009D01*
X69213599Y-84740047D01*
X69338407Y-84817325D01*
X69338409Y-84817326D01*
X69338411Y-84817327D01*
X69532047Y-84892342D01*
X69736170Y-84930500D01*
X69736172Y-84930500D01*
X69943828Y-84930500D01*
X69943830Y-84930500D01*
X70147953Y-84892342D01*
X70341589Y-84817327D01*
X70518145Y-84708009D01*
X70671607Y-84568110D01*
X70796749Y-84402394D01*
X70889311Y-84216505D01*
X70946140Y-84016773D01*
X70965300Y-83810000D01*
X70958813Y-83739998D01*
X70946140Y-83603227D01*
X70920557Y-83513313D01*
X70889311Y-83403495D01*
X70875660Y-83376081D01*
X70796747Y-83217602D01*
X70671609Y-83051892D01*
X70671607Y-83051889D01*
X70518149Y-82911994D01*
X70518143Y-82911990D01*
X70341592Y-82802674D01*
X70341583Y-82802670D01*
X70231726Y-82760112D01*
X70147953Y-82727658D01*
X69943830Y-82689500D01*
X69736170Y-82689500D01*
X69532047Y-82727658D01*
X69338416Y-82802670D01*
X69338407Y-82802674D01*
X69161856Y-82911990D01*
X69161850Y-82911994D01*
X69008392Y-83051889D01*
X69008390Y-83051892D01*
X68883252Y-83217602D01*
X68790693Y-83403484D01*
X68790688Y-83403497D01*
X68733859Y-83603227D01*
X68714700Y-83809999D01*
X68714700Y-83810000D01*
X64770000Y-83810000D01*
X64770000Y-81270001D01*
X78654532Y-81270001D01*
X78674364Y-81496686D01*
X78674366Y-81496697D01*
X78733258Y-81716488D01*
X78733261Y-81716497D01*
X78829431Y-81922732D01*
X78829432Y-81922734D01*
X78959954Y-82109141D01*
X79120858Y-82270045D01*
X79120861Y-82270047D01*
X79307266Y-82400568D01*
X79513504Y-82496739D01*
X79733308Y-82555635D01*
X79895230Y-82569801D01*
X79959998Y-82575468D01*
X79960000Y-82575468D01*
X79960002Y-82575468D01*
X80016673Y-82570509D01*
X80186692Y-82555635D01*
X80406496Y-82496739D01*
X80612734Y-82400568D01*
X80799139Y-82270047D01*
X80960047Y-82109139D01*
X81090568Y-81922734D01*
X81186739Y-81716496D01*
X81245635Y-81496692D01*
X81265468Y-81270000D01*
X81245635Y-81043308D01*
X81189420Y-80833511D01*
X81186741Y-80823511D01*
X81186738Y-80823502D01*
X81111769Y-80662732D01*
X81090568Y-80617266D01*
X80960047Y-80430861D01*
X80960045Y-80430858D01*
X80799141Y-80269954D01*
X80612734Y-80139432D01*
X80612732Y-80139431D01*
X80406497Y-80043261D01*
X80406488Y-80043258D01*
X80186697Y-79984366D01*
X80186693Y-79984365D01*
X80186692Y-79984365D01*
X80186691Y-79984364D01*
X80186686Y-79984364D01*
X79960002Y-79964532D01*
X79959998Y-79964532D01*
X79733313Y-79984364D01*
X79733302Y-79984366D01*
X79513511Y-80043258D01*
X79513502Y-80043261D01*
X79307267Y-80139431D01*
X79307265Y-80139432D01*
X79120858Y-80269954D01*
X78959954Y-80430858D01*
X78829432Y-80617265D01*
X78829431Y-80617267D01*
X78733261Y-80823502D01*
X78733258Y-80823511D01*
X78674366Y-81043302D01*
X78674364Y-81043313D01*
X78654532Y-81269998D01*
X78654532Y-81270001D01*
X64770000Y-81270001D01*
X64770000Y-74920000D01*
X68714700Y-74920000D01*
X68733859Y-75126772D01*
X68790688Y-75326502D01*
X68790693Y-75326515D01*
X68883252Y-75512397D01*
X69008390Y-75678107D01*
X69008392Y-75678110D01*
X69161850Y-75818005D01*
X69161852Y-75818006D01*
X69161855Y-75818009D01*
X69261609Y-75879774D01*
X69338407Y-75927325D01*
X69338409Y-75927326D01*
X69338411Y-75927327D01*
X69532047Y-76002342D01*
X69736170Y-76040500D01*
X69736172Y-76040500D01*
X69943828Y-76040500D01*
X69943830Y-76040500D01*
X70147953Y-76002342D01*
X70341589Y-75927327D01*
X70518145Y-75818009D01*
X70671607Y-75678110D01*
X70796749Y-75512394D01*
X70889311Y-75326505D01*
X70946140Y-75126773D01*
X70965300Y-74920001D01*
X73614532Y-74920001D01*
X73634364Y-75146686D01*
X73634366Y-75146697D01*
X73693258Y-75366488D01*
X73693261Y-75366497D01*
X73789431Y-75572732D01*
X73789432Y-75572734D01*
X73919954Y-75759141D01*
X74080858Y-75920045D01*
X74080861Y-75920047D01*
X74267266Y-76050568D01*
X74473504Y-76146739D01*
X74693308Y-76205635D01*
X74855230Y-76219801D01*
X74919998Y-76225468D01*
X74920000Y-76225468D01*
X74920002Y-76225468D01*
X74976672Y-76220509D01*
X75146692Y-76205635D01*
X75366496Y-76146739D01*
X75572734Y-76050568D01*
X75759139Y-75920047D01*
X75920047Y-75759139D01*
X76050568Y-75572734D01*
X76146739Y-75366496D01*
X76205635Y-75146692D01*
X76225468Y-74920000D01*
X76205635Y-74693308D01*
X76146739Y-74473504D01*
X76050568Y-74267266D01*
X75920047Y-74080861D01*
X75920045Y-74080858D01*
X75759141Y-73919954D01*
X75572734Y-73789432D01*
X75572732Y-73789431D01*
X75366497Y-73693261D01*
X75366488Y-73693258D01*
X75146697Y-73634366D01*
X75146693Y-73634365D01*
X75146692Y-73634365D01*
X75146691Y-73634364D01*
X75146686Y-73634364D01*
X74920002Y-73614532D01*
X74919998Y-73614532D01*
X74693313Y-73634364D01*
X74693302Y-73634366D01*
X74473511Y-73693258D01*
X74473502Y-73693261D01*
X74267267Y-73789431D01*
X74267265Y-73789432D01*
X74080858Y-73919954D01*
X73919954Y-74080858D01*
X73789432Y-74267265D01*
X73789431Y-74267267D01*
X73693261Y-74473502D01*
X73693258Y-74473511D01*
X73634366Y-74693302D01*
X73634364Y-74693313D01*
X73614532Y-74919998D01*
X73614532Y-74920001D01*
X70965300Y-74920001D01*
X70965300Y-74920000D01*
X70946140Y-74713227D01*
X70889311Y-74513495D01*
X70879457Y-74493706D01*
X70796747Y-74327602D01*
X70671609Y-74161892D01*
X70671607Y-74161889D01*
X70518149Y-74021994D01*
X70518143Y-74021990D01*
X70341592Y-73912674D01*
X70341583Y-73912670D01*
X70251389Y-73877729D01*
X70147953Y-73837658D01*
X69943830Y-73799500D01*
X69736170Y-73799500D01*
X69532047Y-73837658D01*
X69338416Y-73912670D01*
X69338407Y-73912674D01*
X69161856Y-74021990D01*
X69161850Y-74021994D01*
X69008392Y-74161889D01*
X69008390Y-74161892D01*
X68883252Y-74327602D01*
X68790693Y-74513484D01*
X68790688Y-74513497D01*
X68733859Y-74713227D01*
X68714700Y-74919999D01*
X68714700Y-74920000D01*
X64770000Y-74920000D01*
X64770000Y-72380000D01*
X68714700Y-72380000D01*
X68733859Y-72586772D01*
X68790688Y-72786502D01*
X68790693Y-72786515D01*
X68883252Y-72972397D01*
X69008390Y-73138107D01*
X69008392Y-73138110D01*
X69161850Y-73278005D01*
X69161852Y-73278006D01*
X69161855Y-73278009D01*
X69221246Y-73314782D01*
X69338407Y-73387325D01*
X69338409Y-73387326D01*
X69338411Y-73387327D01*
X69532047Y-73462342D01*
X69736170Y-73500500D01*
X69736172Y-73500500D01*
X69943828Y-73500500D01*
X69943830Y-73500500D01*
X70147953Y-73462342D01*
X70341589Y-73387327D01*
X70518145Y-73278009D01*
X70671607Y-73138110D01*
X70796749Y-72972394D01*
X70889311Y-72786505D01*
X70946140Y-72586773D01*
X70965300Y-72380000D01*
X70947598Y-72188967D01*
X70946140Y-72173227D01*
X70940474Y-72153313D01*
X70889311Y-71973495D01*
X70882865Y-71960550D01*
X70796747Y-71787602D01*
X70671609Y-71621892D01*
X70671607Y-71621889D01*
X70518149Y-71481994D01*
X70518143Y-71481990D01*
X70341592Y-71372674D01*
X70341583Y-71372670D01*
X70251389Y-71337729D01*
X70147953Y-71297658D01*
X69943830Y-71259500D01*
X69736170Y-71259500D01*
X69532047Y-71297658D01*
X69338416Y-71372670D01*
X69338407Y-71372674D01*
X69161856Y-71481990D01*
X69161850Y-71481994D01*
X69008392Y-71621889D01*
X69008390Y-71621892D01*
X68883252Y-71787602D01*
X68790693Y-71973484D01*
X68790688Y-71973497D01*
X68733859Y-72173227D01*
X68714700Y-72379999D01*
X68714700Y-72380000D01*
X64770000Y-72380000D01*
X64770000Y-69840000D01*
X68714700Y-69840000D01*
X68733859Y-70046772D01*
X68790688Y-70246502D01*
X68790693Y-70246515D01*
X68883252Y-70432397D01*
X69008390Y-70598107D01*
X69008392Y-70598110D01*
X69161850Y-70738005D01*
X69161852Y-70738006D01*
X69161855Y-70738009D01*
X69261609Y-70799774D01*
X69338407Y-70847325D01*
X69338409Y-70847326D01*
X69338411Y-70847327D01*
X69532047Y-70922342D01*
X69736170Y-70960500D01*
X69736172Y-70960500D01*
X69943828Y-70960500D01*
X69943830Y-70960500D01*
X70147953Y-70922342D01*
X70341589Y-70847327D01*
X70518145Y-70738009D01*
X70671607Y-70598110D01*
X70796749Y-70432394D01*
X70889311Y-70246505D01*
X70946140Y-70046773D01*
X70965300Y-69840001D01*
X73614532Y-69840001D01*
X73634364Y-70066686D01*
X73634366Y-70066697D01*
X73693258Y-70286488D01*
X73693261Y-70286497D01*
X73789431Y-70492732D01*
X73789432Y-70492734D01*
X73919954Y-70679141D01*
X74080858Y-70840045D01*
X74080861Y-70840047D01*
X74267266Y-70970568D01*
X74473504Y-71066739D01*
X74693308Y-71125635D01*
X74855230Y-71139801D01*
X74919998Y-71145468D01*
X74920000Y-71145468D01*
X74920002Y-71145468D01*
X74976672Y-71140509D01*
X75146692Y-71125635D01*
X75366496Y-71066739D01*
X75572734Y-70970568D01*
X75759139Y-70840047D01*
X75920047Y-70679139D01*
X76050568Y-70492734D01*
X76146739Y-70286496D01*
X76205635Y-70066692D01*
X76225468Y-69840001D01*
X83774532Y-69840001D01*
X83794364Y-70066686D01*
X83794366Y-70066697D01*
X83853258Y-70286488D01*
X83853261Y-70286497D01*
X83949431Y-70492732D01*
X83949432Y-70492734D01*
X84079954Y-70679141D01*
X84240858Y-70840045D01*
X84240861Y-70840047D01*
X84427266Y-70970568D01*
X84633504Y-71066739D01*
X84853308Y-71125635D01*
X85015230Y-71139801D01*
X85079998Y-71145468D01*
X85080000Y-71145468D01*
X85080002Y-71145468D01*
X85136672Y-71140509D01*
X85306692Y-71125635D01*
X85526496Y-71066739D01*
X85732734Y-70970568D01*
X85919139Y-70840047D01*
X86080047Y-70679139D01*
X86210568Y-70492734D01*
X86306739Y-70286496D01*
X86365635Y-70066692D01*
X86385468Y-69840000D01*
X86365635Y-69613308D01*
X86306739Y-69393504D01*
X86210568Y-69187266D01*
X86080047Y-69000861D01*
X86080045Y-69000858D01*
X85919141Y-68839954D01*
X85732734Y-68709432D01*
X85732732Y-68709431D01*
X85526497Y-68613261D01*
X85526488Y-68613258D01*
X85306697Y-68554366D01*
X85306693Y-68554365D01*
X85306692Y-68554365D01*
X85306691Y-68554364D01*
X85306686Y-68554364D01*
X85080002Y-68534532D01*
X85079998Y-68534532D01*
X84853313Y-68554364D01*
X84853302Y-68554366D01*
X84633511Y-68613258D01*
X84633502Y-68613261D01*
X84427267Y-68709431D01*
X84427265Y-68709432D01*
X84240858Y-68839954D01*
X84079954Y-69000858D01*
X83949432Y-69187265D01*
X83949431Y-69187267D01*
X83853261Y-69393502D01*
X83853258Y-69393511D01*
X83794366Y-69613302D01*
X83794364Y-69613313D01*
X83774532Y-69839998D01*
X83774532Y-69840001D01*
X76225468Y-69840001D01*
X76225468Y-69840000D01*
X76205635Y-69613308D01*
X76146739Y-69393504D01*
X76050568Y-69187266D01*
X75920047Y-69000861D01*
X75920045Y-69000858D01*
X75759141Y-68839954D01*
X75572734Y-68709432D01*
X75572732Y-68709431D01*
X75366497Y-68613261D01*
X75366488Y-68613258D01*
X75146697Y-68554366D01*
X75146693Y-68554365D01*
X75146692Y-68554365D01*
X75146691Y-68554364D01*
X75146686Y-68554364D01*
X74920002Y-68534532D01*
X74919998Y-68534532D01*
X74693313Y-68554364D01*
X74693302Y-68554366D01*
X74473511Y-68613258D01*
X74473502Y-68613261D01*
X74267267Y-68709431D01*
X74267265Y-68709432D01*
X74080858Y-68839954D01*
X73919954Y-69000858D01*
X73789432Y-69187265D01*
X73789431Y-69187267D01*
X73693261Y-69393502D01*
X73693258Y-69393511D01*
X73634366Y-69613302D01*
X73634364Y-69613313D01*
X73614532Y-69839998D01*
X73614532Y-69840001D01*
X70965300Y-69840001D01*
X70965300Y-69840000D01*
X70953306Y-69710567D01*
X70946140Y-69633227D01*
X70940474Y-69613313D01*
X70889311Y-69433495D01*
X70888077Y-69431017D01*
X70796747Y-69247602D01*
X70671609Y-69081892D01*
X70671607Y-69081889D01*
X70518149Y-68941994D01*
X70518143Y-68941990D01*
X70341592Y-68832674D01*
X70341583Y-68832670D01*
X70251389Y-68797729D01*
X70147953Y-68757658D01*
X69943830Y-68719500D01*
X69736170Y-68719500D01*
X69532047Y-68757658D01*
X69338416Y-68832670D01*
X69338407Y-68832674D01*
X69161856Y-68941990D01*
X69161850Y-68941994D01*
X69008392Y-69081889D01*
X69008390Y-69081892D01*
X68883252Y-69247602D01*
X68790693Y-69433484D01*
X68790688Y-69433497D01*
X68733859Y-69633227D01*
X68714700Y-69839999D01*
X68714700Y-69840000D01*
X64770000Y-69840000D01*
X64770000Y-66164000D01*
X64789685Y-66096961D01*
X64842489Y-66051206D01*
X64894000Y-66040000D01*
X88695500Y-66040000D01*
X88762539Y-66059685D01*
G37*
%TD.AperFunction*%
%TD*%
M02*
